<?xml version="1.0" encoding="UTF-8" standalone="no"?>
<!-- Created with Inkscape (http://www.inkscape.org/) -->

<svg
   xmlns:dc="http://purl.org/dc/elements/1.1/"
   xmlns:cc="http://creativecommons.org/ns#"
   xmlns:rdf="http://www.w3.org/1999/02/22-rdf-syntax-ns#"
   xmlns:svg="http://www.w3.org/2000/svg"
   xmlns="http://www.w3.org/2000/svg"
   xmlns:sodipodi="http://sodipodi.sourceforge.net/DTD/sodipodi-0.dtd"
   xmlns:inkscape="http://www.inkscape.org/namespaces/inkscape"
   version="1.1"
   id="svg2"
   xml:space="preserve"
   width="566.93335"
   height="566.93335"
   viewBox="0 0 566.93335 566.93335"
   sodipodi:docname="logoB.svg"
   inkscape:version="0.92.4 (unknown)"><metadata
     id="metadata8"><rdf:RDF><cc:Work
         rdf:about=""><dc:format>image/svg+xml</dc:format><dc:type
           rdf:resource="http://purl.org/dc/dcmitype/StillImage" /><dc:title></dc:title></cc:Work></rdf:RDF></metadata><defs
     id="defs6" /><sodipodi:namedview
     pagecolor="#ffffff"
     bordercolor="#666666"
     borderopacity="1"
     objecttolerance="10"
     gridtolerance="10"
     guidetolerance="10"
     inkscape:pageopacity="0"
     inkscape:pageshadow="2"
     inkscape:window-width="1299"
     inkscape:window-height="713"
     id="namedview4"
     showgrid="false"
     inkscape:zoom="0.83254936"
     inkscape:cx="164.3405"
     inkscape:cy="186.54424"
     inkscape:window-x="67"
     inkscape:window-y="27"
     inkscape:window-maximized="1"
     inkscape:current-layer="g10" /><g
     id="g10"
     inkscape:groupmode="layer"
     inkscape:label="ink_ext_XXXXXX"
     transform="matrix(1.3333333,0,0,-1.3333333,0,566.93333)"><path
       inkscape:connector-curvature="0"
       id="path132"
       style="fill:#fbcb35;fill-opacity:1;fill-rule:nonzero;stroke:none;stroke-width:0.1"
       d="m 620.08101,371.66078 v 0 l -17.712,30.371 17.712,30.373 17.717,-30.373 -17.717,-30.371" /><g
       id="g1839"
       transform="matrix(1.1538802,0,0,1.3126017,-32.715121,-56.274676)"><path
         d="m 194.366,363.563 0.52,0.891 0.433,-0.743 c -0.313,-0.048 -0.64,-0.099 -0.953,-0.148"
         style="fill:#fbcb35;fill-opacity:1;fill-rule:nonzero;stroke:none;stroke-width:0.1"
         id="path98"
         inkscape:connector-curvature="0" /><path
         d="m 354.333,211.436 c 0,-74.945 -60.754,-135.7008 -135.698,-135.7008 -74.946,0 -135.7002,60.7558 -135.7002,135.7008 0,74.944 60.7542,135.7 135.7002,135.7 74.944,0 135.698,-60.756 135.698,-135.7"
         style="fill:#ffffff;fill-opacity:1;fill-rule:nonzero;stroke:none;stroke-width:0.1"
         id="path136"
         inkscape:connector-curvature="0" /><path
         d="m 351.885,200.415 c -0.258,-3.163 -0.626,-6.294 -1.1,-9.39 -0.167,-1.091 0.582,-2.112 1.674,-2.279 1.092,-0.168 2.113,0.582 2.28,1.674 0.488,3.189 0.867,6.413 1.133,9.67 0.09,1.101 -0.73,2.066 -1.831,2.156 -1.101,0.089 -2.066,-0.73 -2.156,-1.831 m -2.862,-18.677 c -0.116,-0.513 -0.235,-1.025 -0.357,-1.536 -0.258,-1.074 0.405,-2.153 1.479,-2.41 1.074,-0.257 2.154,0.405 2.411,1.48 0.126,0.526 0.248,1.053 0.368,1.581 0.245,1.077 -0.431,2.149 -1.508,2.393 -1.077,0.244 -2.148,-0.431 -2.393,-1.508 m -2.884,-10.645 c -0.954,-3.02 -2.014,-5.995 -3.173,-8.918 -0.407,-1.027 0.095,-2.189 1.122,-2.597 1.027,-0.407 2.189,0.095 2.596,1.122 1.195,3.012 2.286,6.076 3.269,9.187 0.333,1.054 -0.251,2.177 -1.304,2.51 -1.053,0.333 -2.177,-0.251 -2.51,-1.304 m -3.765,-10.385 c -1.201,-2.927 -2.503,-5.803 -3.902,-8.622 -0.491,-0.989 -0.087,-2.189 0.903,-2.68 0.989,-0.491 2.189,-0.087 2.68,0.902 1.441,2.904 2.782,5.866 4.02,8.881 0.419,1.022 -0.069,2.191 -1.091,2.61 -1.022,0.419 -2.19,-0.069 -2.61,-1.091 v 0 m -8.406,-16.943 c -0.267,-0.454 -0.536,-0.906 -0.808,-1.356 -0.571,-0.946 -0.268,-2.175 0.678,-2.746 0.945,-0.571 2.175,-0.268 2.746,0.677 0.28,0.464 0.557,0.93 0.832,1.398 0.56,0.952 0.242,2.177 -0.71,2.737 -0.952,0.56 -2.178,0.242 -2.738,-0.71 m -5.983,-9.276 c -1.819,-2.58 -3.726,-5.093 -5.719,-7.535 -0.698,-0.855 -0.571,-2.115 0.285,-2.814 0.855,-0.698 2.115,-0.571 2.814,0.285 2.052,2.514 4.016,5.102 5.89,7.759 0.636,0.903 0.42,2.151 -0.483,2.787 -0.902,0.636 -2.15,0.421 -2.787,-0.482 m -6.723,-8.751 c -2.024,-2.42 -4.131,-4.768 -6.318,-7.038 -0.766,-0.796 -0.742,-2.062 0.054,-2.828 0.795,-0.766 2.061,-0.743 2.828,0.053 2.251,2.338 4.421,4.756 6.505,7.248 0.708,0.847 0.595,2.109 -0.252,2.817 -0.848,0.709 -2.109,0.596 -2.817,-0.252 m -13.113,-13.615 c -0.39,-0.351 -0.781,-0.701 -1.176,-1.048 -0.828,-0.73 -0.908,-1.994 -0.178,-2.823 0.73,-0.829 1.994,-0.908 2.823,-0.178 0.405,0.357 0.809,0.717 1.211,1.079 0.82,0.74 0.885,2.005 0.145,2.825 -0.74,0.82 -2.004,0.885 -2.825,0.146 v -10e-4 m -8.485,-7.044 c -2.503,-1.91 -5.074,-3.733 -7.711,-5.4649 -0.924,-0.6071 -1.18,-1.8469 -0.574,-2.77 0.607,-0.923 1.847,-1.18 2.77,-0.573 2.716,1.784 5.364,3.6617 7.942,5.6279 0.878,0.67 1.046,1.925 0.376,2.803 -0.67,0.879 -1.925,1.047 -2.803,0.377 m -9.031,-6.322 c -2.649,-1.6949 -5.361,-3.3011 -8.132,-4.8101 -0.97,-0.5289 -1.328,-1.743 -0.8,-2.7141 0.529,-0.9699 1.743,-1.3277 2.713,-0.7988 2.855,1.5551 5.648,3.2082 8.376,4.9551 0.93,0.5961 1.201,1.8328 0.606,2.7629 -0.596,0.93 -1.833,1.2011 -2.763,0.6058 v -8e-4 m -16.582,-9.032 c -0.476,-0.218 -0.953,-0.432 -1.432,-0.6441 -1.011,-0.4457 -1.468,-1.627 -1.021,-2.6368 0.446,-1.0113 1.627,-1.4679 2.637,-1.0211 0.494,0.218 0.985,0.4391 1.476,0.6622 1.005,0.4578 1.448,1.6449 0.99,2.65 -0.459,1.0046 -1.645,1.4476 -2.65,0.9898 m -10.199,-4.15 c -2.954,-1.0621 -5.957,-2.023 -9.004,-2.8781 -1.064,-0.2981 -1.684,-1.4028 -1.385,-2.466 0.298,-1.0641 1.402,-1.684 2.466,-1.3848 3.139,0.8809 6.232,1.8707 9.276,2.9641 1.039,0.3738 1.579,1.5187 1.206,2.5589 -0.374,1.0387 -1.519,1.5789 -2.559,1.2047 v 0.0012 m -10.524,-3.2949 c -3.03,-0.8121 -6.102,-1.5199 -9.212,-2.1199 -1.085,-0.209 -1.795,-1.2582 -1.585,-2.3434 0.209,-1.084 1.258,-1.7938 2.342,-1.5848 3.205,0.6192 6.369,1.3481 9.49,2.184 1.067,0.286 1.7,1.3828 1.414,2.45 -0.286,1.0668 -1.382,1.7 -2.449,1.4141 m -18.552,-3.5813 c -0.521,-0.0617 -1.043,-0.1218 -1.566,-0.1789 -1.098,-0.1187 -1.892,-1.1051 -1.773,-2.2031 0.119,-1.0988 1.106,-1.8918 2.204,-1.7727 0.539,0.0579 1.076,0.12 1.613,0.184 1.097,0.1321 1.879,1.1278 1.747,2.225 -0.132,1.0957 -1.128,1.8778 -2.225,1.7457 v 0 M 223.781,77.832 c -1.707,-0.064 -3.423,-0.0968 -5.146,-0.0968 -1.443,0 -2.881,0.0226 -4.312,0.0679 -1.104,0.0348 -2.028,-0.8312 -2.063,-1.9351 -0.035,-1.1039 0.832,-2.0282 1.936,-2.0629 1.474,-0.0461 2.954,-0.0699 4.439,-0.0699 1.774,0 3.54,0.0339 5.297,0.1 1.104,0.0418 1.965,0.9707 1.923,2.0738 -0.042,1.1039 -0.97,1.9648 -2.074,1.923 v 0 m -11.034,0.0301 c -3.172,0.1379 -6.315,0.3859 -9.425,0.7399 -1.098,0.125 -2.089,-0.6629 -2.214,-1.7602 -0.125,-1.0977 0.663,-2.0887 1.761,-2.2137 3.203,-0.3652 6.439,-0.6203 9.705,-0.7621 1.104,-0.0469 2.037,0.8078 2.085,1.9121 0.047,1.1028 -0.808,2.0367 -1.912,2.0848 v -8e-4 m -18.774,2.143 c -0.517,0.0961 -1.033,0.1949 -1.548,0.298 -1.083,0.2149 -2.136,-0.489 -2.351,-1.5722 -0.216,-1.0829 0.488,-2.136 1.571,-2.352 0.531,-0.1051 1.062,-0.207 1.595,-0.307 1.086,-0.202 2.13,0.514 2.333,1.6 0.202,1.0859 -0.514,2.1301 -1.6,2.3332 v 0 m -10.748,2.4687 c -3.053,0.8364 -6.062,1.7782 -9.023,2.8211 -1.042,0.3672 -2.184,-0.1801 -2.551,-1.2219 -0.367,-1.041 0.18,-2.1832 1.222,-2.5511 3.05,-1.0739 6.15,-2.0438 9.295,-2.9059 1.065,-0.291 2.165,0.3352 2.457,1.4012 0.292,1.0648 -0.335,2.1656 -1.4,2.4566 v 0 m -10.512,3.3563 c -2.974,1.0867 -5.897,2.2769 -8.768,3.5648 -1.007,0.4531 -2.191,0.002 -2.643,-1.0051 -0.452,-1.0078 -0.002,-2.1918 1.005,-2.6437 2.957,-1.327 5.969,-2.5531 9.032,-3.6731 1.037,-0.3789 2.186,0.154 2.565,1.1918 0.379,1.0372 -0.154,2.1852 -1.191,2.5653 m -17.258,7.7449 c -0.464,0.2488 -0.926,0.5012 -1.387,0.7551 -0.966,0.5347 -2.183,0.184 -2.717,-0.7832 -0.535,-0.9668 -0.184,-2.1828 0.783,-2.718 0.474,-0.2621 0.95,-0.5211 1.428,-0.7777 0.973,-0.5231 2.186,-0.1582 2.709,0.8148 0.522,0.9731 0.157,2.186 -0.816,2.709 m -9.501,5.6211 c -2.649,1.7199 -5.233,3.5299 -7.748,5.4269 -0.882,0.665 -2.136,0.489 -2.801,-0.393 -0.666,-0.881 -0.49,-2.136 0.392,-2.801 2.59,-1.9528 5.252,-3.8181 7.98,-5.588 0.927,-0.6012 2.165,-0.3379 2.767,0.5891 0.601,0.9269 0.337,2.1648 -0.59,2.7668 v -8e-4 m -9.002,6.3839 c -2.497,1.93 -4.924,3.946 -7.276,6.044 -0.824,0.735 -2.089,0.663 -2.824,-0.162 -0.735,-0.824 -0.663,-2.088 0.161,-2.823 2.422,-2.161 4.921,-4.237 7.493,-6.224 0.874,-0.675 2.13,-0.514 2.805,0.36 0.676,0.874 0.515,2.13 -0.359,2.805 m -14.108,12.583 c -0.367,0.376 -0.731,0.754 -1.093,1.135 -0.761,0.8 -2.027,0.832 -2.828,0.071 -0.8,-0.762 -0.831,-2.028 -0.07,-2.828 0.373,-0.392 0.748,-0.781 1.125,-1.169 0.771,-0.791 2.037,-0.808 2.828,-0.037 0.792,0.77 0.808,2.036 0.038,2.828 m -7.365,8.21 c -2.005,2.429 -3.926,4.929 -5.758,7.498 -0.642,0.899 -1.891,1.108 -2.79,0.466 -0.899,-0.641 -1.108,-1.89 -0.466,-2.79 1.887,-2.644 3.865,-5.219 5.929,-7.72 0.703,-0.852 1.964,-0.972 2.816,-0.269 0.852,0.703 0.972,1.964 0.269,2.815 v 0 m -6.664,8.784 c -1.798,2.583 -3.506,5.232 -5.122,7.943 -0.565,0.949 -1.792,1.259 -2.741,0.694 -0.949,-0.566 -1.2602,-1.793 -0.695,-2.742 1.664,-2.792 3.423,-5.52 5.274,-8.18 0.631,-0.906 1.878,-1.13 2.784,-0.499 0.907,0.631 1.13,1.877 0.5,2.784 v 0 m -9.667,16.225 c -0.2355,0.467 -0.4683,0.936 -0.6984,1.407 -0.4851,0.992 -1.6828,1.403 -2.675,0.918 -0.9926,-0.485 -1.4035,-1.683 -0.9183,-2.675 0.2367,-0.485 0.4765,-0.968 0.7191,-1.45 0.4969,-0.986 1.6992,-1.383 2.6859,-0.886 0.9864,0.497 1.3836,1.699 0.8867,2.686 m -4.5421,10.033 c -1.1762,2.912 -2.2524,5.876 -3.2246,8.886 -0.3395,1.051 -1.4668,1.628 -2.518,1.289 -1.0508,-0.34 -1.6278,-1.467 -1.2883,-2.518 1.0016,-3.101 2.1102,-6.154 3.3215,-9.155 0.4133,-1.024 1.5789,-1.519 2.6031,-1.105 1.0242,0.413 1.5195,1.579 1.1063,2.603 m -3.7,10.389 c -0.9293,2.997 -1.7555,6.04 -2.475,9.123 -0.2512,1.076 -1.3266,1.744 -2.4024,1.493 -1.0758,-0.251 -1.7441,-1.326 -1.493,-2.402 0.7415,-3.176 1.5926,-6.311 2.5497,-9.398 0.3269,-1.055 1.4472,-1.645 2.5023,-1.318 1.0551,0.326 1.6453,1.447 1.3184,2.502 v 0 m -4.295,18.399 c -0.0828,0.519 -0.1625,1.038 -0.239,1.558 -0.1614,1.093 -1.1778,1.848 -2.2703,1.687 -1.093,-0.161 -1.8481,-1.177 -1.6871,-2.27 0.0793,-0.536 0.1613,-1.071 0.2464,-1.605 0.1739,-1.091 1.1993,-1.834 2.2903,-1.66 1.0906,0.174 1.834,1.2 1.6597,2.29 v 0 m -1.2871,10.953 c -0.2375,3.121 -0.3675,6.272 -0.3867,9.449 -0.0066,1.105 -0.9074,1.995 -2.0121,1.988 -1.1047,-0.007 -1.9945,-0.907 -1.9879,-2.012 0.0199,-3.27 0.1539,-6.514 0.3981,-9.728 0.0839,-1.101 1.0445,-1.926 2.1461,-1.842 1.1011,0.083 1.9261,1.044 1.8425,2.145 v 0 m -0.3871,11.026 c 0.0172,3.177 0.1453,6.328 0.3805,9.448 0.0832,1.101 -0.7426,2.062 -1.8442,2.145 -1.1011,0.083 -2.0613,-0.743 -2.1445,-1.845 -0.2422,-3.212 -0.3738,-6.456 -0.3918,-9.726 -0.0062,-1.104 0.8844,-2.004 1.9891,-2.01 1.1043,-0.007 2.0047,0.884 2.0109,1.988 m 1.4227,18.844 c 0.0761,0.52 0.1554,1.04 0.2379,1.558 0.1734,1.091 -0.5703,2.116 -1.661,2.289 -1.091,0.174 -2.116,-0.57 -2.289,-1.661 -0.0852,-0.534 -0.1668,-1.069 -0.2457,-1.605 -0.1602,-1.093 0.5957,-2.109 1.6882,-2.269 1.093,-0.161 2.109,0.595 2.2696,1.688 m 2.0519,10.836 c 0.7176,3.084 1.5422,6.127 2.4696,9.125 0.3261,1.055 -0.2649,2.175 -1.32,2.502 -1.055,0.326 -2.1754,-0.265 -2.5015,-1.32 -0.9551,-3.089 -1.8043,-6.223 -2.5438,-9.4 -0.2504,-1.076 0.4188,-2.151 1.4946,-2.402 1.0757,-0.25 2.1507,0.419 2.4011,1.495 v 0 m 2.9461,10.634 c 0.9719,3.015 2.0481,5.983 3.2239,8.9 0.4128,1.025 -0.0829,2.19 -1.1071,2.603 -1.0246,0.413 -2.1898,-0.082 -2.6027,-1.107 -1.2113,-3.005 -2.3199,-6.062 -3.3211,-9.168 -0.3391,-1.051 0.2387,-2.179 1.2898,-2.517 1.0512,-0.339 2.1782,0.238 2.5172,1.289 m 7.0727,17.546 c 0.2312,0.474 0.4652,0.946 0.7019,1.416 0.4965,0.987 0.0993,2.189 -0.8875,2.686 -0.9867,0.496 -2.189,0.099 -2.6855,-0.888 -0.2438,-0.484 -0.4848,-0.97 -0.7231,-1.458 -0.4847,-0.992 -0.0734,-2.19 0.9192,-2.675 0.9922,-0.485 2.1902,-0.073 2.675,0.919 v 0 m 5.2529,9.712 c 1.616,2.714 3.326,5.366 5.125,7.951 0.631,0.907 0.408,2.154 -0.499,2.784 -0.907,0.631 -2.153,0.408 -2.784,-0.499 -1.853,-2.663 -3.614,-5.394 -5.279,-8.189 -0.5651,-0.949 -0.2538,-2.177 0.695,-2.742 0.949,-0.565 2.177,-0.254 2.742,0.695 v 0 m 6.034,9.242 c 1.834,2.569 3.756,5.071 5.762,7.501 0.703,0.852 0.583,2.113 -0.269,2.816 -0.852,0.703 -2.113,0.583 -2.816,-0.269 -2.066,-2.502 -4.045,-5.079 -5.933,-7.725 -0.641,-0.9 -0.432,-2.149 0.467,-2.79 0.899,-0.641 2.148,-0.433 2.789,0.467 v 0 m 12.036,14.579 c 0.362,0.381 0.726,0.759 1.093,1.135 0.771,0.792 0.754,2.058 -0.037,2.829 -0.792,0.77 -2.058,0.754 -2.829,-0.038 -0.377,-0.387 -0.752,-0.777 -1.125,-1.169 -0.762,-0.8 -0.73,-2.066 0.07,-2.828 0.801,-0.761 2.066,-0.729 2.828,0.071 m 7.925,7.674 c 2.351,2.097 4.776,4.112 7.272,6.04 0.874,0.676 1.035,1.932 0.36,2.806 -0.676,0.874 -1.932,1.035 -2.806,0.359 -2.57,-1.986 -5.068,-4.061 -7.489,-6.22 -0.824,-0.735 -0.897,-2 -0.161,-2.824 0.735,-0.824 1.999,-0.897 2.824,-0.161 v 0 m 8.523,6.996 c 2.514,1.895 5.096,3.704 7.742,5.422 0.927,0.601 1.19,1.84 0.589,2.767 -0.601,0.926 -1.84,1.19 -2.767,0.588 -2.725,-1.769 -5.384,-3.632 -7.972,-5.584 -0.882,-0.665 -1.058,-1.919 -0.393,-2.801 0.665,-0.881 1.92,-1.057 2.801,-0.392 m 15.845,10.283 c 0.458,0.253 0.918,0.504 1.38,0.752 0.973,0.523 1.338,1.736 0.815,2.709 -0.523,0.973 -1.736,1.338 -2.709,0.815 -0.475,-0.256 -0.949,-0.514 -1.421,-0.775 -0.967,-0.534 -1.317,-1.752 -0.783,-2.718 0.534,-0.967 1.751,-1.317 2.718,-0.783 m 9.853,4.927 c 2.863,1.286 5.779,2.474 8.745,3.561 1.037,0.38 1.57,1.529 1.19,2.566 -0.38,1.037 -1.529,1.57 -2.566,1.189 -3.055,-1.119 -6.059,-2.343 -9.008,-3.668 -1.008,-0.452 -1.458,-1.636 -1.005,-2.644 0.453,-1.007 1.636,-1.457 2.644,-1.004 m 10.228,4.094 c 2.96,1.045 5.968,1.988 9.02,2.826 1.066,0.293 1.692,1.393 1.4,2.459 -0.293,1.065 -1.394,1.691 -2.459,1.399 -3.144,-0.864 -6.243,-1.836 -9.292,-2.912 -1.042,-0.367 -1.588,-1.51 -1.221,-2.551 0.368,-1.042 1.51,-1.588 2.552,-1.221 m 18.219,5.003 c 0.515,0.103 1.031,0.203 1.548,0.299 1.086,0.203 1.801,1.248 1.598,2.334 -0.203,1.086 -1.248,1.801 -2.334,1.598 -0.532,-0.099 -1.063,-0.202 -1.594,-0.308 -1.083,-0.216 -1.786,-1.269 -1.57,-2.352 0.216,-1.084 1.269,-1.787 2.352,-1.571 v 0 m 10.895,1.707 c 3.111,0.357 6.253,0.606 9.425,0.746 1.104,0.048 1.959,0.982 1.91,2.086 -0.048,1.103 -0.982,1.958 -2.085,1.91 -3.266,-0.144 -6.502,-0.401 -9.705,-0.768 -1.097,-0.126 -1.885,-1.117 -1.759,-2.215 0.126,-1.097 1.117,-1.884 2.215,-1.759 h -10e-4 m 10.995,0.805 c 1.46,0.048 2.927,0.072 4.399,0.072 1.694,0 3.381,-0.032 5.059,-0.095 1.104,-0.041 2.032,0.821 2.073,1.925 0.041,1.104 -0.82,2.032 -1.924,2.073 -1.728,0.064 -3.465,0.097 -5.208,0.097 -1.515,0 -3.025,-0.025 -4.528,-0.073 -1.104,-0.036 -1.97,-0.96 -1.934,-2.064 0.035,-1.104 0.959,-1.97 2.063,-1.934 v -10e-4 m 18.888,-0.704 c 0.523,-0.057 1.045,-0.116 1.566,-0.178 1.097,-0.132 2.093,0.651 2.224,1.748 0.131,1.097 -0.652,2.092 -1.748,2.223 -0.537,0.065 -1.075,0.126 -1.614,0.184 -1.098,0.118 -2.084,-0.676 -2.202,-1.774 -0.119,-1.099 0.676,-2.085 1.774,-2.203 v 0 m 10.907,-1.633 c 3.111,-0.598 6.184,-1.304 9.214,-2.114 1.067,-0.285 2.163,0.349 2.448,1.416 0.286,1.067 -0.348,2.163 -1.415,2.448 -3.122,0.834 -6.287,1.562 -9.492,2.178 -1.084,0.209 -2.133,-0.502 -2.341,-1.586 -0.209,-1.085 0.501,-2.133 1.586,-2.342 v 0 m 10.734,-2.53 c 3.048,-0.854 6.051,-1.812 9.007,-2.872 1.04,-0.373 2.185,0.168 2.558,1.207 0.373,1.04 -0.168,2.186 -1.208,2.558 -3.044,1.092 -6.139,2.08 -9.278,2.959 -1.064,0.297 -2.168,-0.323 -2.465,-1.387 -0.298,-1.064 0.323,-2.167 1.386,-2.465 m 17.797,-6.383 c 0.482,-0.212 0.963,-0.428 1.442,-0.646 1.005,-0.458 2.191,-0.015 2.649,0.99 0.458,1.006 0.015,2.192 -0.99,2.649 -0.494,0.225 -0.989,0.448 -1.486,0.667 -1.011,0.446 -2.192,-0.012 -2.638,-1.022 -0.446,-1.011 0.012,-2.191 1.023,-2.638 v 0 m 9.908,-4.873 c 2.776,-1.511 5.492,-3.118 8.144,-4.816 0.931,-0.595 2.168,-0.324 2.763,0.606 0.596,0.931 0.324,2.168 -0.606,2.763 -2.732,1.749 -5.529,3.403 -8.388,4.96 -0.97,0.528 -2.185,0.17 -2.713,-0.8 -0.528,-0.97 -0.17,-2.185 0.8,-2.713 v 0 m 9.469,-5.675 c 2.639,-1.733 5.213,-3.558 7.718,-5.469 0.879,-0.67 2.133,-0.501 2.804,0.377 0.67,0.878 0.501,2.133 -0.377,2.803 -2.58,1.968 -5.231,3.847 -7.949,5.633 -0.923,0.606 -2.163,0.349 -2.77,-0.574 -0.606,-0.923 -0.349,-2.163 0.574,-2.77 v 0 m 15.031,-11.468 c 0.395,-0.347 0.787,-0.697 1.177,-1.049 0.821,-0.739 2.085,-0.674 2.825,0.146 0.74,0.82 0.675,2.085 -0.146,2.825 -0.401,0.362 -0.805,0.722 -1.212,1.08 -0.828,0.73 -2.092,0.65 -2.822,-0.179 -0.73,-0.828 -0.65,-2.092 0.178,-2.822 v -10e-4 m 7.973,-7.625 c 2.186,-2.27 4.293,-4.617 6.316,-7.037 0.708,-0.847 1.97,-0.96 2.817,-0.252 0.848,0.709 0.96,1.97 0.252,2.818 -2.083,2.491 -4.253,4.908 -6.504,7.245 -0.766,0.796 -2.032,0.82 -2.828,0.054 -0.795,-0.767 -0.819,-2.033 -0.053,-2.828 v 0 m 7.319,-8.251 c 1.991,-2.44 3.898,-4.951 5.716,-7.529 0.636,-0.903 1.884,-1.118 2.787,-0.482 0.903,0.637 1.119,1.884 0.482,2.787 -1.872,2.655 -3.836,5.241 -5.886,7.753 -0.699,0.856 -1.959,0.983 -2.815,0.285 -0.855,-0.699 -0.983,-1.959 -0.284,-2.814 v 0 m 10.886,-15.44 c 0.271,-0.448 0.54,-0.899 0.805,-1.351 0.56,-0.952 1.786,-1.269 2.738,-0.709 0.952,0.56 1.27,1.786 0.71,2.738 -0.274,0.465 -0.55,0.929 -0.829,1.391 -0.572,0.945 -1.801,1.248 -2.747,0.677 -0.945,-0.571 -1.248,-1.801 -0.677,-2.746 v 0 m 5.305,-9.658 c 1.396,-2.812 2.697,-5.681 3.897,-8.602 0.42,-1.021 1.589,-1.509 2.61,-1.089 1.022,0.42 1.51,1.588 1.09,2.61 -1.236,3.008 -2.576,5.963 -4.015,8.86 -0.491,0.99 -1.691,1.394 -2.681,0.902 -0.989,-0.491 -1.393,-1.691 -0.901,-2.681 v 0 m 4.488,-10.063 c 1.159,-2.919 2.218,-5.889 3.174,-8.905 0.333,-1.053 1.457,-1.636 2.51,-1.302 1.053,0.333 1.637,1.457 1.303,2.51 -0.984,3.107 -2.075,6.166 -3.27,9.173 -0.407,1.027 -1.57,1.529 -2.597,1.121 -1.026,-0.408 -1.528,-1.57 -1.12,-2.597 v 0 m 5.706,-18.012 c 0.122,-0.511 0.242,-1.022 0.358,-1.535 0.245,-1.077 1.317,-1.752 2.394,-1.507 1.077,0.245 1.752,1.317 1.507,2.394 -0.121,0.528 -0.244,1.055 -0.37,1.581 -0.258,1.074 -1.337,1.736 -2.411,1.478 -1.074,-0.258 -1.736,-1.337 -1.478,-2.411 m 2.126,-10.821 c 0.476,-3.096 0.846,-6.227 1.106,-9.389 0.09,-1.101 1.056,-1.92 2.157,-1.829 1.101,0.09 1.92,1.056 1.829,2.157 -0.267,3.256 -0.648,6.48 -1.139,9.669 -0.168,1.091 -1.189,1.84 -2.28,1.672 -1.092,-0.167 -1.841,-1.189 -1.673,-2.28 m 1.226,-10.961 c 0.219,-3.122 0.332,-6.273 0.334,-9.451 10e-4,-1.105 0.897,-2 2.001,-1.999 1.105,0.001 2,0.897 1.999,2.001 -0.002,3.271 -0.118,6.516 -0.344,9.73 -0.078,1.102 -1.034,1.932 -2.136,1.855 -1.102,-0.078 -1.932,-1.034 -1.854,-2.136 v 0 m 0.334,-9.531 c 0,-3.177 -0.111,-6.328 -0.329,-9.449 -0.077,-1.102 0.754,-2.058 1.856,-2.134 1.102,-0.077 2.058,0.754 2.135,1.855 0.224,3.214 0.338,6.458 0.338,9.728 0,1.105 -0.895,2 -2,2 -1.105,0 -2,-0.895 -2,-2 v 0"
         style="fill:#800000;fill-opacity:1;fill-rule:nonzero;stroke:none;stroke-width:0.1"
         id="path138"
         inkscape:connector-curvature="0" /><path
         d="m 105.566,251.633 c -0.012,-0.083 -0.535,-3.33 -0.536,-7.755 0,-2.297 0.141,-4.912 0.582,-7.582 0.668,-3.997 1.985,-8.161 4.721,-11.487 1.366,-1.656 3.103,-3.081 5.223,-4.065 2.119,-0.987 4.598,-1.526 7.406,-1.524 3.296,0.002 7.048,0.725 11.372,2.295 1.206,0.438 1.829,1.771 1.391,2.977 -0.438,1.206 -1.771,1.829 -2.977,1.391 -3.944,-1.433 -7.18,-2.017 -9.786,-2.015 -2.97,0.007 -5.112,0.725 -6.807,1.857 -1.269,0.854 -2.302,1.969 -3.158,3.31 -1.283,2.005 -2.137,4.521 -2.643,7.143 -0.509,2.62 -0.678,5.333 -0.677,7.7 0,2.028 0.122,3.804 0.243,5.06 0.06,0.628 0.121,1.127 0.165,1.464 0.022,0.168 0.04,0.296 0.053,0.379 l 0.013,0.091 0.003,0.02 c 0.205,1.267 -0.657,2.46 -1.924,2.665 -1.267,0.204 -2.459,-0.658 -2.664,-1.925 v 0.001"
         style="fill:#351f17;fill-opacity:1;fill-rule:nonzero;stroke:none;stroke-width:0.1"
         id="path140"
         inkscape:connector-curvature="0" /><path
         d="m 110.04,250.766 3.1,3.144 c 0.902,0.914 0.891,2.385 -0.023,3.286 -0.913,0.902 -2.385,0.891 -3.286,-0.023 l -3.1,-3.144 c -0.901,-0.914 -0.891,-2.385 0.023,-3.286 0.914,-0.901 2.385,-0.891 3.286,0.023"
         style="fill:#351f17;fill-opacity:1;fill-rule:nonzero;stroke:none;stroke-width:0.1"
         id="path142"
         inkscape:connector-curvature="0" /><path
         d="m 110.704,252.546 -0.283,4.407 c -0.082,1.281 -1.187,2.253 -2.467,2.17 -1.281,-0.082 -2.253,-1.186 -2.17,-2.467 l 0.282,-4.407 c 0.082,-1.281 1.187,-2.253 2.468,-2.171 1.281,0.083 2.252,1.187 2.17,2.468"
         style="fill:#351f17;fill-opacity:1;fill-rule:nonzero;stroke:none;stroke-width:0.1"
         id="path144"
         inkscape:connector-curvature="0" /><path
         d="m 109.818,254.227 -3.478,2.722 c -1.01,0.791 -2.471,0.613 -3.262,-0.398 -0.791,-1.01 -0.613,-2.471 0.398,-3.262 l 3.477,-2.722 c 1.011,-0.791 2.471,-0.613 3.262,0.398 0.791,1.011 0.613,2.471 -0.397,3.262"
         style="fill:#351f17;fill-opacity:1;fill-rule:nonzero;stroke:none;stroke-width:0.1"
         id="path146"
         inkscape:connector-curvature="0" /><path
         d="m 224.811,140.08 c -31.422,0 -59.27,4.743 -76.405,13.012 -9.294,4.486 -13.889,26.94 -13.647,33.251 0.149,3.862 1.935,5.661 5.621,5.661 1.25,0 2.644,-0.179 4.259,-0.385 1.976,-0.253 4.216,-0.539 6.649,-0.539 1.393,0 2.693,0.092 3.973,0.28 15.525,2.295 82.145,10.405 119.438,10.405 8.37,0 14.723,-0.421 18.883,-1.254 14.604,-2.921 21.51,-11.222 20.525,-24.673 -1.107,-15.13 -16.362,-27.223 -39.814,-31.56 -14.856,-2.747 -31.965,-4.198 -49.479,-4.198 h -0.003"
         style="fill:#f8a039;fill-opacity:1;fill-rule:nonzero;stroke:none;stroke-width:0.1"
         id="path148"
         inkscape:connector-curvature="0" /><path
         d="m 274.699,203.051 c -37.365,0 -104.08,-8.122 -119.626,-10.419 -1.218,-0.18 -2.456,-0.268 -3.785,-0.268 -2.351,0 -4.548,0.281 -6.487,0.529 -1.588,0.203 -3.089,0.395 -4.421,0.395 -4.405,0 -6.729,-2.32 -6.905,-6.895 -0.258,-6.726 4.428,-29.659 14.373,-34.458 17.303,-8.35 45.355,-13.14 76.963,-13.14 17.592,0 34.784,1.459 49.716,4.22 24.053,4.448 39.71,16.989 40.861,32.729 1.04,14.201 -6.212,22.958 -21.554,26.027 -4.243,0.849 -10.68,1.28 -19.135,1.28 m 0,-2.57 c 7.841,0 14.316,-0.366 18.631,-1.229 16.88,-3.377 20.231,-13.282 19.496,-23.321 -1.104,-15.082 -17.124,-26.387 -38.766,-30.389 -14.631,-2.705 -31.862,-4.178 -49.249,-4.178 -28.456,0 -57.322,3.945 -75.847,12.886 -8.535,4.119 -13.17,25.566 -12.921,32.045 0.136,3.533 1.708,4.423 4.337,4.423 2.677,0 6.446,-0.923 10.908,-0.923 1.329,0 2.72,0.082 4.161,0.295 17.428,2.576 82.994,10.391 119.25,10.391"
         style="fill:#351f17;fill-opacity:1;fill-rule:nonzero;stroke:none;stroke-width:0.1"
         id="path150"
         inkscape:connector-curvature="0" /><path
         d="m 257.597,143.142 c 14.586,5.497 24.511,14.959 25.371,26.716 0.08,1.093 0.111,2.185 0.082,3.266 7.177,0.748 13.174,1.661 17.968,2.736 1.555,0.349 3.149,0.731 4.705,1.187 2.376,-0.984 4.708,-1.843 6.954,-2.529 -1.969,-14.373 -17.657,-25.1 -38.617,-28.976 -0.537,-0.099 -1.077,-0.197 -1.62,-0.293 -4.718,-0.832 -9.696,-1.534 -14.843,-2.107"
         style="fill:#f46e1e;fill-opacity:1;fill-rule:nonzero;stroke:none;stroke-width:0.1"
         id="path152"
         inkscape:connector-curvature="0" /><path
         d="m 272.44,145.249 c 0.543,0.096 1.083,0.194 1.62,0.293 20.96,3.876 36.648,14.603 38.617,28.976 v 0 c -1.969,-14.373 -17.657,-25.1 -38.617,-28.976 -0.537,-0.1 -1.077,-0.197 -1.62,-0.293"
         style="fill:#36180f;fill-opacity:1;fill-rule:nonzero;stroke:none;stroke-width:0.1"
         id="path154"
         inkscape:connector-curvature="0" /><path
         d="m 215.074,171.903 c -77.636,0.001 -80.576,5.839 -82.724,10.103 -0.152,0.301 -0.284,0.562 -0.434,0.762 -3.586,4.796 -1.403,31.592 0.515,34.709 1.915,3.114 7.734,8.774 10.207,9.928 1.655,0.773 9.251,1.238 19.8,1.812 3.462,0.187 6.452,0.349 8.158,0.497 12.819,1.102 26.086,1.195 37.515,1.195 l 11.345,-0.012 c 2.196,0 4.394,0.004 6.584,0.016 7.344,0.043 14.796,0.474 22.003,0.891 7.221,0.418 14.687,0.85 22.054,0.892 1.958,0.012 3.924,0.052 5.891,0.091 2.317,0.047 4.713,0.095 7.073,0.095 1.693,0 3.213,-0.025 4.645,-0.075 1.102,-0.039 2.228,-0.049 3.365,-0.061 4.213,-0.043 8.57,-0.086 12.59,-1.467 6.966,-2.396 12.936,-10.187 13.036,-17.011 0.003,-0.26 0.364,-26.004 -1.115,-29.114 l -0.052,-0.109 c -1.78,-3.782 -5.949,-12.635 -91.156,-13.115 -3.215,-0.018 -6.299,-0.027 -9.287,-0.027 h -0.013"
         style="fill:#671317;fill-opacity:1;fill-rule:nonzero;stroke:none;stroke-width:0.1"
         id="path156"
         inkscape:connector-curvature="0" /><path
         d="m 283.061,234.198 c -2.373,0 -4.776,-0.049 -7.1,-0.096 -1.93,-0.038 -3.926,-0.078 -5.872,-0.09 -7.401,-0.043 -14.885,-0.475 -22.122,-0.894 -7.19,-0.416 -14.625,-0.847 -21.934,-0.889 -2.188,-0.012 -4.382,-0.015 -6.575,-0.015 -1.887,0 -3.774,0.002 -5.664,0.004 -1.893,0.003 -3.788,0.006 -5.684,0.006 -11.456,0 -24.756,-0.092 -37.627,-1.2 -1.685,-0.144 -4.665,-0.307 -8.116,-0.494 -13.484,-0.732 -18.576,-1.135 -20.285,-1.933 -2.892,-1.349 -8.89,-7.369 -10.772,-10.43 -1.868,-3.035 -2.469,-15.925 -2.532,-17.385 -0.43,-10.051 0.272,-16.377 2.085,-18.802 0.08,-0.106 0.192,-0.33 0.311,-0.567 1.401,-2.784 3.565,-5.446 14.514,-7.419 12.721,-2.292 35.417,-3.407 69.386,-3.407 2.99,0 6.091,0.009 9.307,0.027 36.245,0.204 62.029,1.97 76.637,5.246 6.298,1.413 13.225,3.361 15.703,8.624 l 0.05,0.106 c 1.581,3.326 1.281,27.008 1.241,29.698 -0.107,7.325 -6.482,15.676 -13.923,18.235 -4.222,1.45 -8.687,1.495 -13.005,1.538 -1.158,0.012 -2.252,0.024 -3.332,0.061 -1.447,0.051 -2.982,0.076 -4.691,0.076 m 0,-2.632 c 1.536,0 3.07,-0.02 4.599,-0.074 5.089,-0.179 10.686,0.221 15.573,-1.457 6.154,-2.117 12.053,-9.297 12.148,-15.786 0.04,-2.73 0.216,-25.999 -0.987,-28.53 -1.44,-3.029 -4.598,-11.992 -90.027,-12.473 -3.212,-0.019 -6.308,-0.028 -9.292,-0.028 -84.335,0 -79.643,7.045 -82.104,10.338 -3.16,4.225 -1.202,30.334 0.58,33.232 1.767,2.872 7.403,8.379 9.644,9.425 2.235,1.043 21.864,1.704 27.513,2.189 12.395,1.066 24.912,1.19 37.402,1.19 3.787,0 7.57,-0.011 11.348,-0.011 2.198,0 4.396,0.004 6.59,0.016 14.742,0.085 29.378,1.7 44.056,1.784 4.303,0.025 8.639,0.185 12.957,0.185"
         style="fill:#351f17;fill-opacity:1;fill-rule:nonzero;stroke:none;stroke-width:0.1"
         id="path158"
         inkscape:connector-curvature="0" /><path
         d="m 215.056,173.219 c -13.227,0 -24.266,0.173 -33.484,0.478 -0.003,0 -0.014,0.001 -0.017,0.001 -0.02,0.001 -0.043,0.001 -0.063,0.002 -0.004,0 -0.002,0 -0.006,0 -0.02,0.001 -0.043,0.002 -0.063,0.002 -0.01,0.001 -0.012,0.001 -0.023,0.001 -0.02,0.001 -0.04,0.001 -0.06,0.002 -0.008,0 -0.01,0 -0.017,10e-4 -0.01,0 -0.017,0 -0.027,0.001 -6.255,0.209 -11.663,0.48 -16.35,0.798 h -0.003 c -0.008,0.001 -0.016,0.001 -0.024,0.002 -0.013,0.001 -0.03,0.002 -0.042,0.003 -0.008,0 -0.012,0.001 -0.02,0.001 -0.015,0.001 -0.027,0.002 -0.042,0.003 -0.006,0 -0.007,0 -0.013,10e-4 -0.014,0.001 -0.025,0.002 -0.04,0.003 -0.005,0 -0.011,0 -0.016,0.001 -0.015,0.001 -0.034,0.002 -0.049,0.003 h -0.002 c -15.037,1.033 -22.549,2.56 -26.474,4.139 1.56,0.615 3.145,1.289 4.738,2.008 11.477,-1.522 30.864,-2.612 64.025,-2.611 2.987,0 6.093,0.008 9.307,0.027 2.112,0.012 4.176,0.029 6.189,0.051 5.602,-1.676 12.117,-2.625 19.127,-2.625 9.01,0 17.203,1.568 23.69,4.231 12.716,0.955 21.392,2.23 27.353,3.589 3.031,-1.619 6.119,-3.179 9.174,-4.579 -11.38,-2.771 -33.554,-5.259 -77.457,-5.506 v 0 c -3.219,-0.018 -6.321,-0.027 -9.311,-0.027"
         style="fill:#581115;fill-opacity:1;fill-rule:nonzero;stroke:none;stroke-width:0.1"
         id="path160"
         inkscape:connector-curvature="0" /><path
         d="m 224.367,173.246 v 0 c 43.903,0.247 66.077,2.735 77.457,5.506 v 0 c -11.38,-2.771 -33.554,-5.259 -77.457,-5.506 v 0 m -42.795,0.451 c -0.006,0.001 -0.011,0.001 -0.017,0.001 0.003,0 0.014,-0.001 0.017,-0.001 m -0.08,0.003 c -0.004,0 -0.002,0 -0.006,0 0.004,0 0.002,0 0.006,0 m -0.069,0.002 c -0.01,0.001 -0.013,0.001 -0.023,0.001 0.011,0 0.013,0 0.023,-0.001 m -0.083,0.003 c -0.004,0 -0.013,10e-4 -0.017,10e-4 0.007,-10e-4 0.009,-10e-4 0.017,-10e-4 m -0.044,0.002 c -6.253,0.209 -11.664,0.48 -16.35,0.798 4.687,-0.318 10.095,-0.589 16.35,-0.798 m -16.353,0.798 c -0.01,0.001 -0.014,0.001 -0.024,0.002 0.008,-0.001 0.016,-0.001 0.024,-0.002 m -0.066,0.005 c -0.008,0 -0.013,0.001 -0.02,0.001 0.008,0 0.012,-0.001 0.02,-0.001 m -0.062,0.004 c -0.003,0 -0.01,10e-4 -0.013,10e-4 0.006,-10e-4 0.007,-10e-4 0.013,-10e-4 m -0.053,0.004 c -0.005,0 -0.011,0 -0.016,0.001 0.005,-0.001 0.011,-0.001 0.016,-0.001 m -0.065,0.004 c -0.002,0 0.001,0 -0.002,0 h 0.002"
         style="fill:#2f1812;fill-opacity:1;fill-rule:nonzero;stroke:none;stroke-width:0.1"
         id="path162"
         inkscape:connector-curvature="0" /><path
         d="m 322.702,174.07 c -12.529,0.001 -32.752,12.031 -46.134,19.991 -1.253,0.745 -2.431,1.446 -3.52,2.087 -1.939,1.141 -4.591,2.857 -7.663,4.843 -10.894,7.047 -27.358,17.695 -35.219,17.784 l -1.301,0.015 v 2.914 l 0.627,0.386 c 6.127,3.769 19.679,5.071 30.569,6.117 1.99,0.191 3.856,0.37 5.517,0.551 8.9,0.971 18.384,1.433 28.13,1.859 1.524,0.066 2.712,0.098 3.738,0.098 5.944,0 7.962,-1.103 11.391,-4.641 7.851,-8.105 13.015,-17.398 14.934,-26.874 0.195,-0.965 0.582,-2.385 1.029,-4.029 2.258,-8.299 4.069,-16.031 1.468,-19.441 -0.827,-1.083 -2.048,-1.657 -3.533,-1.659 l -0.033,-0.001"
         style="fill:#fbd23d;fill-opacity:1;fill-rule:nonzero;stroke:none;stroke-width:0.1"
         id="path164"
         inkscape:connector-curvature="0" /><path
         d="m 297.446,232.03 c -1.045,0 -2.251,-0.031 -3.795,-0.099 -9.768,-0.426 -19.277,-0.889 -28.216,-1.865 -1.649,-0.18 -3.52,-0.359 -5.5,-0.55 -11.025,-1.058 -24.746,-2.377 -31.133,-6.306 l -1.253,-0.771 v -1.471 -0.877 -2.603 l 2.602,-0.029 c 7.481,-0.084 24.407,-11.031 34.52,-17.572 3.083,-1.996 5.746,-3.717 7.709,-4.873 1.089,-0.64 2.266,-1.341 3.518,-2.086 13.505,-8.033 33.914,-20.173 46.804,-20.173 2.448,0.004 3.856,1.186 4.612,2.177 2.969,3.892 1.193,11.625 -1.244,20.584 -0.442,1.621 -0.822,3.023 -1.009,3.946 -1.97,9.722 -7.253,19.241 -15.278,27.527 -3.666,3.782 -5.962,5.041 -12.337,5.041 m 0,-2.632 c 5.58,0 7.263,-0.956 10.446,-4.24 7.873,-8.128 12.751,-17.142 14.589,-26.219 1.109,-5.474 7.708,-23.54 0.251,-23.552 h -0.03 c -13.36,0 -36.776,14.708 -48.987,21.895 -8.828,5.197 -33.01,22.69 -43.534,22.809 v 0.877 c 6.996,4.304 25.205,5.355 35.54,6.482 9.122,0.995 18.856,1.451 28.045,1.852 1.396,0.061 2.609,0.096 3.68,0.096"
         style="fill:#351f17;fill-opacity:1;fill-rule:nonzero;stroke:none;stroke-width:0.1"
         id="path166"
         inkscape:connector-curvature="0" /><path
         d="m 122.724,176.294 c -1.485,0.002 -2.706,0.576 -3.533,1.66 -2.601,3.409 -0.79,11.139 1.468,19.436 0.447,1.645 0.834,3.066 1.03,4.033 1.918,9.475 7.082,18.767 14.933,26.873 3.428,3.539 5.445,4.64 11.381,4.64 1.028,0 2.219,-0.03 3.748,-0.097 9.747,-0.426 19.231,-0.888 28.13,-1.859 1.662,-0.181 3.528,-0.36 5.517,-0.551 10.89,-1.046 24.442,-2.348 30.57,-6.118 l 0.626,-0.386 v -2.914 l -1.301,-0.014 c -7.861,-0.09 -24.324,-10.737 -35.218,-17.783 -3.072,-1.988 -5.725,-3.703 -7.664,-4.844 -1.093,-0.644 -2.275,-1.347 -3.533,-2.095 -13.377,-7.957 -33.595,-19.982 -46.12,-19.982 l -0.034,0.001"
         style="fill:#fbd23d;fill-opacity:1;fill-rule:nonzero;stroke:none;stroke-width:0.1"
         id="path168"
         inkscape:connector-curvature="0" /><path
         d="m 148.005,234.253 v -2.632 l -0.001,2.632 h -0.001 c -6.367,0 -8.662,-1.259 -12.327,-5.042 -8.025,-8.286 -13.308,-17.805 -15.277,-27.528 -0.187,-0.924 -0.568,-2.325 -1.01,-3.947 -2.437,-8.958 -4.213,-16.688 -1.244,-20.58 0.756,-0.991 2.164,-2.174 4.577,-2.179 12.923,0 33.327,12.137 46.829,20.167 1.256,0.747 2.436,1.45 3.528,2.091 1.962,1.156 4.626,2.879 7.71,4.873 10.113,6.541 27.039,17.488 34.519,17.572 l 2.602,0.03 v 2.602 0.878 1.471 l -1.253,0.77 c -6.387,3.93 -20.108,5.248 -31.133,6.307 -1.98,0.19 -3.85,0.37 -5.5,0.55 -8.939,0.975 -18.447,1.439 -28.215,1.865 -1.549,0.068 -2.757,0.1 -3.804,0.1 m -0.002,-2.632 c 1.074,0 2.29,-0.035 3.691,-0.097 9.188,-0.401 18.923,-0.857 28.045,-1.852 10.335,-1.127 28.543,-2.178 35.539,-6.482 v -0.878 c -10.524,-0.119 -34.705,-17.611 -43.534,-22.808 -12.21,-7.186 -35.625,-21.895 -48.986,-21.895 h -0.031 c -7.457,0.014 -0.858,18.076 0.252,23.552 1.838,9.079 6.716,18.092 14.588,26.219 3.181,3.284 4.865,4.241 10.436,4.241"
         style="fill:#351f17;fill-opacity:1;fill-rule:nonzero;stroke:none;stroke-width:0.1"
         id="path170"
         inkscape:connector-curvature="0" /><path
         d="m 169.929,182.487 c -20.849,0 -37.182,8.423 -37.182,19.176 0,10.754 16.333,19.179 37.182,19.179 20.85,0 37.182,-8.425 37.182,-19.179 0,-10.753 -16.332,-19.176 -37.182,-19.176"
         style="fill:#ef3644;fill-opacity:1;fill-rule:nonzero;stroke:none;stroke-width:0.1"
         id="path172"
         inkscape:connector-curvature="0" /><path
         d="m 169.929,222.114 c -21.563,0 -38.454,-8.983 -38.454,-20.451 0,-11.466 16.891,-20.448 38.454,-20.448 21.563,0 38.454,8.982 38.454,20.448 0,11.468 -16.891,20.451 -38.454,20.451 m 0,-2.545 c 19.832,0 35.909,-8.017 35.909,-17.906 0,-9.887 -16.077,-17.903 -35.909,-17.903 -19.832,0 -35.91,8.016 -35.91,17.903 0,9.889 16.078,17.906 35.91,17.906"
         style="fill:#351f17;fill-opacity:1;fill-rule:nonzero;stroke:none;stroke-width:0.1"
         id="path174"
         inkscape:connector-curvature="0" /><path
         d="m 169.929,188.388 c -17.532,0 -31.265,7.127 -31.265,16.225 0,9.1 13.733,16.229 31.265,16.229 17.532,0 31.265,-7.129 31.265,-16.229 0,-9.098 -13.733,-16.225 -31.265,-16.225"
         style="fill:#ef3644;fill-opacity:1;fill-rule:nonzero;stroke:none;stroke-width:0.1"
         id="path176"
         inkscape:connector-curvature="0" /><path
         d="m 169.929,222.114 c -18.245,0 -32.537,-7.688 -32.537,-17.501 0,-9.811 14.292,-17.497 32.537,-17.497 18.245,0 32.537,7.686 32.537,17.497 0,9.813 -14.292,17.501 -32.537,17.501 m 0,-2.545 c 16.565,0 29.993,-6.695 29.993,-14.956 0,-8.26 -13.428,-14.952 -29.993,-14.952 -16.564,0 -29.993,6.692 -29.993,14.952 0,8.261 13.429,14.956 29.993,14.956"
         style="fill:#351f17;fill-opacity:1;fill-rule:nonzero;stroke:none;stroke-width:0.1"
         id="path178"
         inkscape:connector-curvature="0" /><path
         d="m 241.607,176.784 c -20.85,0 -37.182,8.424 -37.182,19.177 0,10.754 16.332,19.177 37.182,19.177 20.85,0 37.182,-8.423 37.182,-19.177 0,-10.753 -16.332,-19.177 -37.182,-19.177"
         style="fill:#ef3644;fill-opacity:1;fill-rule:nonzero;stroke:none;stroke-width:0.1"
         id="path180"
         inkscape:connector-curvature="0" /><path
         d="m 241.607,216.411 c -21.563,0 -38.454,-8.984 -38.454,-20.45 0,-11.467 16.891,-20.45 38.454,-20.45 21.563,0 38.453,8.983 38.453,20.45 0,11.466 -16.89,20.45 -38.453,20.45 m 0,-2.545 c 19.831,0 35.909,-8.017 35.909,-17.905 0,-9.888 -16.078,-17.905 -35.909,-17.905 -19.832,0 -35.909,8.017 -35.909,17.905 0,9.888 16.077,17.905 35.909,17.905"
         style="fill:#351f17;fill-opacity:1;fill-rule:nonzero;stroke:none;stroke-width:0.1"
         id="path182"
         inkscape:connector-curvature="0" /><path
         d="m 241.607,182.685 c -17.532,0 -31.266,7.128 -31.266,16.227 0,9.098 13.734,16.226 31.266,16.226 17.532,0 31.265,-7.128 31.265,-16.226 0,-9.099 -13.733,-16.227 -31.265,-16.227"
         style="fill:#ef3644;fill-opacity:1;fill-rule:nonzero;stroke:none;stroke-width:0.1"
         id="path184"
         inkscape:connector-curvature="0" /><path
         d="m 241.607,216.411 c -18.246,0 -32.538,-7.687 -32.538,-17.499 0,-9.813 14.292,-17.499 32.538,-17.499 18.245,0 32.537,7.686 32.537,17.499 0,9.812 -14.292,17.499 -32.537,17.499 m 0,-2.545 c 16.564,0 29.993,-6.695 29.993,-14.954 0,-8.261 -13.429,-14.954 -29.993,-14.954 -16.564,0 -29.993,6.693 -29.993,14.954 0,8.259 13.429,14.954 29.993,14.954"
         style="fill:#351f17;fill-opacity:1;fill-rule:nonzero;stroke:none;stroke-width:0.1"
         id="path186"
         inkscape:connector-curvature="0" /><path
         d="m 242.46,192.391 c -1.192,0 -2.429,0.099 -3.78,0.302 -2.797,0.421 -4.771,2.017 -6.679,3.561 -1.434,1.16 -2.788,2.255 -4.454,2.845 -1.589,0.564 -3.202,0.85 -4.793,0.85 -3.117,0 -6.142,-1.068 -8.989,-3.176 -2.18,-1.612 -4.857,-2.5 -7.539,-2.5 -2.334,0 -4.531,0.678 -6.355,1.96 -1.436,1.01 -2.256,2.158 -2.915,3.081 -0.974,1.363 -1.51,2.114 -3.554,2.242 -0.536,0.034 -1.097,0.066 -1.664,0.066 -1.737,0 -2.864,-0.318 -3.655,-1.029 -0.528,-0.476 -0.906,-1.041 -1.306,-1.637 -0.642,-0.957 -1.37,-2.042 -2.779,-2.849 -1.148,-0.659 -3.471,-1.764 -6.119,-1.764 -2.067,0 -3.856,0.707 -5.172,2.042 -1.186,1.205 -2.015,2.713 -2.815,4.172 -1.237,2.253 -2.305,4.199 -4.337,4.577 -0.374,0.069 -0.741,0.103 -1.124,0.103 -2.36,0 -4.624,-1.318 -7.021,-2.715 -2.523,-1.469 -5.132,-2.988 -8.051,-2.988 -2.088,0 -4.031,0.765 -5.942,2.337 -1.305,1.073 -1.925,2.667 -2.472,4.073 -0.498,1.277 -0.967,2.483 -1.778,2.865 -0.345,0.162 -0.796,0.245 -1.341,0.245 -1.565,0 -3.849,-0.698 -6.43,-1.963 -1.402,-0.689 -4.144,-1.843 -6.75,-1.843 h -0.001 c -2.393,0 -3.672,0.997 -4.324,1.833 -1.177,1.511 -1.387,3.811 -0.624,6.838 0.698,2.773 2.211,3.986 3.812,5.269 0.345,0.278 0.707,0.566 1.078,0.888 1.429,1.236 2.358,2.614 3.434,4.209 0,0 0.953,1.41 1.196,1.774 1.608,2.41 3.61,5.41 6.018,6.838 1.834,1.086 3.986,1.582 6.068,2.062 0.885,0.204 1.721,0.396 2.484,0.625 7.105,2.13 15.389,4.433 23.786,4.818 2.733,0.124 5.507,0.188 8.245,0.188 3.129,0 6.246,-0.083 9.263,-0.246 2.846,-0.154 5.701,-0.495 8.462,-0.826 2.891,-0.345 5.878,-0.703 8.806,-0.835 1.092,-0.049 2.255,-0.073 3.658,-0.073 1.07,0 2.141,0.014 3.211,0.027 1.081,0.013 2.163,0.027 3.245,0.027 1.608,0 2.936,-0.03 4.179,-0.095 6.827,-0.355 13.707,-0.98 20.359,-1.586 3.205,-0.291 6.412,-0.582 9.627,-0.847 1.016,-0.083 2.076,-0.124 3.15,-0.124 4.257,0 8.35,0.633 12.682,1.304 1.786,0.277 3.632,0.562 5.485,0.798 l 0.127,0.017 c 5.657,0.721 16.187,2.064 25.232,2.064 11.686,0 17.664,-2.238 18.277,-6.843 0.303,-2.271 4.715,-6.954 8.714,-10.206 0.521,-0.425 1.097,-0.799 1.653,-1.161 1.876,-1.22 4.002,-2.603 4.124,-6.049 0.087,-2.438 -0.064,-6.055 -0.522,-8.251 -1.174,-5.631 -7.192,-8.671 -12.258,-8.671 -0.119,0 -0.236,0.002 -0.353,0.006 -2.793,0.086 -5.518,0.786 -8.153,1.463 -2.747,0.705 -5.341,1.371 -7.933,1.371 -0.345,0 -0.689,-0.011 -1.034,-0.037 -3.105,-0.231 -5.972,-1.639 -9.009,-3.129 -3.203,-1.571 -6.515,-3.196 -10.308,-3.489 -1.649,-0.128 -2.894,-0.185 -4.036,-0.185 -3.918,0 -6.894,0.711 -9.651,2.307 -0.898,0.52 -1.928,0.784 -3.058,0.784 -1.685,0 -3.521,-0.587 -5.169,-1.65 -4.468,-2.886 -7.982,-4.064 -12.128,-4.064"
         style="fill:#5bc354;fill-opacity:1;fill-rule:nonzero;stroke:none;stroke-width:0.1"
         id="path188"
         inkscape:connector-curvature="0" /><path
         d="m 175.818,242.005 c -2.758,0 -5.554,-0.064 -8.31,-0.19 -8.558,-0.391 -16.941,-2.722 -24.127,-4.876 -0.719,-0.216 -1.534,-0.403 -2.396,-0.601 -2.085,-0.481 -4.448,-1.026 -6.471,-2.224 -2.685,-1.591 -4.786,-4.739 -6.474,-7.269 -0.24,-0.361 -0.473,-0.709 -0.697,-1.037 l -0.495,-0.731 c -1.062,-1.574 -1.901,-2.817 -3.188,-3.932 -0.356,-0.308 -0.704,-0.587 -1.036,-0.853 -1.633,-1.309 -3.484,-2.792 -4.3,-6.028 -0.874,-3.47 -0.578,-6.18 0.881,-8.053 0.845,-1.085 2.476,-2.378 5.441,-2.378 2.893,0 5.861,1.245 7.374,1.987 2.355,1.155 4.472,1.818 5.806,1.818 0.456,0 0.67,-0.077 0.74,-0.11 0.298,-0.141 0.793,-1.414 1.06,-2.098 0.58,-1.49 1.302,-3.343 2.891,-4.652 2.145,-1.765 4.447,-2.659 6.842,-2.659 3.302,0 6.078,1.616 8.763,3.181 2.227,1.296 4.331,2.522 6.309,2.522 0.295,0 0.578,-0.026 0.865,-0.079 1.307,-0.243 2.126,-1.628 3.355,-3.866 0.808,-1.472 1.724,-3.141 3.048,-4.485 1.589,-1.612 3.726,-2.465 6.18,-2.465 2.976,0 5.553,1.223 6.824,1.953 1.695,0.97 2.557,2.255 3.249,3.288 0.365,0.545 0.681,1.014 1.079,1.374 0.504,0.453 1.365,0.665 2.708,0.665 0.53,0 1.09,-0.032 1.573,-0.064 1.374,-0.086 1.566,-0.355 2.492,-1.651 0.683,-0.957 1.619,-2.268 3.253,-3.417 2.063,-1.45 4.542,-2.217 7.169,-2.217 2.983,0 5.959,0.987 8.38,2.777 2.599,1.923 5.34,2.899 8.148,2.899 1.43,0 2.883,-0.259 4.32,-0.768 1.438,-0.51 2.7,-1.531 4.036,-2.612 1.961,-1.586 4.182,-3.383 7.36,-3.86 1.421,-0.214 2.726,-0.318 3.99,-0.318 4.442,0 8.179,1.243 12.896,4.289 1.401,0.906 3.006,1.425 4.401,1.425 0.878,0 1.669,-0.2 2.35,-0.595 3.868,-2.237 7.764,-2.496 10.359,-2.496 1.18,0 2.459,0.058 4.146,0.189 4.062,0.313 7.498,2 10.822,3.631 2.91,1.427 5.658,2.776 8.49,2.987 0.301,0.022 0.613,0.033 0.929,0.033 2.413,0 4.923,-0.644 7.581,-1.327 2.71,-0.695 5.512,-1.415 8.461,-1.507 0.131,-0.004 0.264,-0.006 0.397,-0.006 5.624,0 12.317,3.434 13.644,9.798 0.537,2.576 0.623,6.548 0.551,8.59 -0.149,4.18 -2.818,5.916 -4.767,7.185 -0.55,0.357 -1.069,0.695 -1.531,1.072 -4.163,3.386 -7.997,7.729 -8.205,9.296 -0.963,7.233 -11.693,8.07 -19.68,8.07 -9.133,0 -19.719,-1.35 -25.407,-2.075 l -0.131,-0.017 c -1.872,-0.239 -3.727,-0.526 -5.522,-0.804 -4.278,-0.662 -8.318,-1.288 -12.466,-1.288 -1.036,0 -2.057,0.041 -3.034,0.122 -3.207,0.262 -6.465,0.558 -9.615,0.845 -6.666,0.606 -13.559,1.233 -20.414,1.589 -1.268,0.067 -2.619,0.097 -4.252,0.097 -1.087,0 -2.175,-0.014 -3.263,-0.027 -1.064,-0.013 -2.129,-0.027 -3.193,-0.027 -1.382,0 -2.523,0.023 -3.593,0.071 -2.876,0.131 -5.838,0.485 -8.702,0.828 -2.784,0.333 -5.663,0.677 -8.555,0.834 -3.042,0.164 -6.184,0.247 -9.339,0.247 m 0,-2.83 c 3.078,0 6.156,-0.081 9.186,-0.244 5.781,-0.312 11.502,-1.4 17.281,-1.662 1.24,-0.056 2.481,-0.074 3.722,-0.074 2.152,0 4.305,0.054 6.456,0.054 1.369,0 2.738,-0.022 4.105,-0.093 10.029,-0.522 19.944,-1.608 29.945,-2.43 1.098,-0.09 2.185,-0.13 3.265,-0.13 6.198,0 12.141,1.323 18.346,2.115 5.76,0.734 16.159,2.069 25.18,2.069 8.804,-0.001 16.296,-1.272 16.874,-5.614 0.45,-3.375 6.683,-9.051 9.224,-11.117 2.34,-1.905 5.128,-2.56 5.256,-6.163 0.079,-2.211 -0.051,-5.791 -0.493,-7.912 -1.069,-5.128 -6.78,-7.545 -10.873,-7.545 -0.104,0 -0.208,0.002 -0.309,0.005 -5.435,0.169 -10.748,2.836 -16.13,2.836 -0.379,0 -0.759,-0.013 -1.139,-0.042 -6.795,-0.506 -12.318,-6.078 -19.321,-6.618 -1.347,-0.104 -2.653,-0.181 -3.927,-0.181 -3.143,0 -6.088,0.465 -8.942,2.117 -1.174,0.679 -2.463,0.974 -3.767,0.974 -2.073,0 -4.186,-0.747 -5.937,-1.877 -3.937,-2.543 -7.231,-3.837 -11.36,-3.837 -1.119,0 -2.299,0.096 -3.569,0.287 -4.386,0.659 -6.651,4.843 -10.871,6.34 -1.765,0.626 -3.528,0.931 -5.266,0.931 -3.438,0 -6.777,-1.193 -9.831,-3.453 -1.921,-1.422 -4.316,-2.223 -6.697,-2.223 -1.944,0 -3.88,0.534 -5.541,1.702 -3.239,2.279 -2.795,5.303 -7.195,5.578 -0.563,0.037 -1.155,0.069 -1.751,0.069 -1.646,0 -3.334,-0.251 -4.602,-1.393 -1.571,-1.415 -1.91,-3.203 -3.842,-4.309 -1.551,-0.89 -3.526,-1.577 -5.416,-1.577 -1.535,0 -3.014,0.454 -4.164,1.621 -2.865,2.908 -3.657,8.357 -7.902,9.146 -0.468,0.087 -0.927,0.127 -1.382,0.127 -5.414,0 -9.931,-5.703 -15.072,-5.703 -1.604,0 -3.271,0.556 -5.044,2.015 -2.199,1.81 -2.084,5.967 -4.545,7.126 -0.569,0.267 -1.232,0.378 -1.944,0.378 -2.401,0 -5.348,-1.271 -7.054,-2.107 -1.961,-0.963 -4.233,-1.698 -6.127,-1.698 -2.883,0 -4.888,1.706 -3.576,6.91 0.721,2.862 2.436,3.694 4.444,5.433 1.793,1.552 2.827,3.241 4.168,5.207 1.679,2.46 3.807,6.004 6.276,7.466 2.392,1.417 5.657,1.776 8.236,2.549 7.686,2.304 15.481,4.396 23.444,4.76 2.704,0.123 5.442,0.187 8.181,0.187"
         style="fill:#351f17;fill-opacity:1;fill-rule:nonzero;stroke:none;stroke-width:0.1"
         id="path190"
         inkscape:connector-curvature="0" /><path
         d="m 272.565,196.436 c -1.721,0 -3.382,0.138 -5.001,0.524 1.132,2.233 2.335,3.99 4.015,4.549 6.579,2.633 13.158,9.212 22.37,9.212 -5.896,4.717 -13.903,5.207 -21.185,5.258 8.621,0.788 15.879,1.796 20.539,3.035 7.228,1.923 13.111,7.066 16.813,14.497 0.025,-0.108 0.045,-0.22 0.06,-0.333 0.001,-0.004 0.002,-0.008 0.002,-0.012 0.45,-3.375 6.683,-9.051 9.224,-11.117 2.34,-1.905 5.128,-2.56 5.256,-6.163 0.014,-0.397 0.022,-0.839 0.022,-1.308 0,-2.143 -0.152,-4.864 -0.515,-6.604 v 0 c -1.069,-5.127 -6.781,-7.545 -10.873,-7.544 -0.041,0 -0.081,0 -0.122,0 -0.063,0.001 -0.125,0.003 -0.187,0.004 -5.435,0.169 -10.748,2.836 -16.13,2.836 -0.379,0 -0.759,-0.013 -1.139,-0.042 -6.795,-0.506 -12.318,-6.078 -19.321,-6.618 v 0 c -0.011,-0.001 -0.022,-0.002 -0.033,-0.003 -0.058,-0.004 -0.115,-0.008 -0.173,-0.013 -1.239,-0.093 -2.445,-0.158 -3.622,-0.158"
         style="fill:#3ab84b;fill-opacity:1;fill-rule:nonzero;stroke:none;stroke-width:0.1"
         id="path192"
         inkscape:connector-curvature="0" /><path
         d="m 276.187,196.594 c 0.058,0.005 0.115,0.009 0.173,0.013 -0.058,-0.004 -0.115,-0.008 -0.173,-0.013 m 0.206,0.016 v 0 c 7.003,0.54 12.526,6.112 19.321,6.618 0.38,0.029 0.76,0.042 1.139,0.042 5.382,0 10.695,-2.667 16.13,-2.836 0.062,-0.001 0.124,-0.003 0.187,-0.004 -0.062,0.001 -0.125,0.002 -0.187,0.004 -5.435,0.169 -10.748,2.836 -16.13,2.836 -0.379,0 -0.759,-0.014 -1.139,-0.042 -6.795,-0.506 -12.318,-6.078 -19.321,-6.618 v 0 m 47.772,11.364 v 0 c 0.363,1.74 0.515,4.461 0.515,6.604 0,-2.143 -0.152,-4.864 -0.515,-6.604 v 0 m -13.989,25.204 c -0.015,0.113 -0.035,0.225 -0.06,0.333 v 0 c 0.025,-0.108 0.045,-0.22 0.06,-0.333"
         style="fill:#261f13;fill-opacity:1;fill-rule:nonzero;stroke:none;stroke-width:0.1"
         id="path194"
         inkscape:connector-curvature="0" /><path
         d="m 202.604,208.934 c -25.733,0 -50.755,4.427 -70.924,18.23 0.597,0.848 1.23,1.691 1.897,2.443 3.98,-4.536 10.101,-8.637 19.444,-11.193 10.787,-2.951 34.127,-4.644 64.038,-4.644 16.046,0 34.958,0.57 50.557,1.776 -20.476,-3.376 -43.001,-6.612 -65.012,-6.612"
         style="fill:#3ab84b;fill-opacity:1;fill-rule:nonzero;stroke:none;stroke-width:0.1"
         id="path196"
         inkscape:connector-curvature="0" /><path
         d="m 217.059,214.852 c -29.819,0 -53.056,1.679 -63.752,4.606 -21.977,6.013 -25.571,20.755 -25.758,29.007 -0.456,20.219 17.543,42.598 40.124,49.886 17.678,5.705 37.767,8.848 56.567,8.848 42,0 65.349,-14.486 77.542,-26.638 9.872,-9.841 13.792,-25.374 9.986,-39.574 -2.924,-10.908 -9.755,-18.536 -18.743,-20.927 -11.53,-3.066 -42.768,-5.208 -75.963,-5.208 h -0.003"
         style="fill:#f8a039;fill-opacity:1;fill-rule:nonzero;stroke:none;stroke-width:0.1"
         id="path198"
         inkscape:connector-curvature="0" /><path
         d="m 224.24,308.281 c -18.909,0 -39.117,-3.161 -56.9,-8.9 -11.422,-3.687 -21.928,-11.075 -29.584,-20.802 -7.503,-9.533 -11.512,-20.237 -11.289,-30.139 0.193,-8.553 3.9,-23.828 26.554,-30.026 10.787,-2.951 34.127,-4.644 64.038,-4.644 27.224,0 62.695,1.641 76.244,5.244 9.372,2.494 16.484,10.4 19.51,21.693 3.905,14.567 -0.125,30.512 -10.268,40.621 -9.298,9.268 -21.286,16.28 -35.627,20.84 -12.758,4.056 -27.117,6.113 -42.678,6.113 m 0,-2.165 c 28.817,0 57.649,-7.256 76.778,-26.321 18.449,-18.389 12.614,-53.133 -8.271,-58.689 -12.145,-3.23 -44.527,-5.172 -75.688,-5.172 -26.365,0 -51.856,1.391 -63.467,4.568 -44.085,12.062 -23.773,64.494 14.413,76.819 16.644,5.371 36.434,8.795 56.235,8.795"
         style="fill:#351f17;fill-opacity:1;fill-rule:nonzero;stroke:none;stroke-width:0.1"
         id="path200"
         inkscape:connector-curvature="0" /><path
         d="m 217.059,215.934 c -6.836,0 -13.618,0.094 -20.109,0.288 -18.544,0.554 -34.758,1.927 -43.358,4.28 -0.019,0.005 -0.035,0.009 -0.054,0.015 -0.009,0.002 -0.016,0.004 -0.025,0.006 -0.008,0.003 -0.02,0.006 -0.028,0.008 -7.718,2.129 -13.446,5.504 -17.452,9.678 2.077,-0.917 4.338,-1.727 6.813,-2.406 6.765,-1.85 17.495,-2.606 30.023,-2.606 34.388,0 82.297,5.696 98.731,10.066 20.885,5.555 37.12,33.447 18.671,51.832 -1.809,1.805 -3.716,3.486 -5.691,5.082 6.004,-3.408 11.542,-7.503 16.438,-12.382 7.603,-7.578 11.082,-17.934 11.082,-27.88 0.002,-14.189 -7.075,-27.543 -19.353,-30.809 v 0 c -12.145,-3.23 -44.527,-5.172 -75.688,-5.172"
         style="fill:#f46e1e;fill-opacity:1;fill-rule:nonzero;stroke:none;stroke-width:0.1"
         id="path202"
         inkscape:connector-curvature="0" /><path
         d="m 196.95,216.222 c -18.545,0.554 -34.758,1.927 -43.358,4.28 -0.018,0.005 -0.036,0.01 -0.054,0.015 0.019,-0.006 0.035,-0.01 0.054,-0.015 8.6,-2.353 24.814,-3.726 43.358,-4.28 m -43.437,4.301 c -0.009,0.003 -0.019,0.006 -0.028,0.008 0.008,-0.002 0.02,-0.005 0.028,-0.008 m 139.234,0.583 v 0 c 12.278,3.266 19.355,16.62 19.353,30.809 0.002,-14.189 -7.075,-27.543 -19.353,-30.809 v 0"
         style="fill:#36180f;fill-opacity:1;fill-rule:nonzero;stroke:none;stroke-width:0.1"
         id="path204"
         inkscape:connector-curvature="0" /><path
         d="m 152.86,275.109 c -0.431,0.001 -0.837,0.192 -1.144,0.537 -0.639,0.721 -1.062,2.695 -1,3.209 0.112,0.938 0.805,1.976 2.06,3.084 0.284,0.252 0.598,0.552 0.933,0.871 1.7,1.621 3.816,3.639 6.07,3.639 0.256,0 0.509,-0.026 0.753,-0.079 0.97,-0.208 1.573,-1.315 1.741,-2.008 0.249,-1.023 -0.269,-1.583 -0.503,-1.775 -3.089,-2.553 -4.861,-4.216 -7.313,-6.519 l -0.592,-0.556 c -0.279,-0.26 -0.635,-0.403 -1.005,-0.403 v 0"
         style="fill:#fbd23d;fill-opacity:1;fill-rule:nonzero;stroke:none;stroke-width:0.1"
         id="path206"
         inkscape:connector-curvature="0" /><path
         d="m 159.779,287.765 c -2.78,0 -5.108,-2.219 -6.978,-4.003 -0.322,-0.307 -0.624,-0.595 -0.899,-0.838 -1.502,-1.328 -2.341,-2.644 -2.493,-3.913 -0.099,-0.83 0.392,-3.19 1.323,-4.239 0.56,-0.631 1.316,-0.978 2.128,-0.978 0.705,0 1.38,0.268 1.902,0.756 l 0.595,0.558 c 2.526,2.372 4.194,3.939 7.253,6.467 0.883,0.726 1.237,1.885 0.942,3.098 -0.228,0.938 -1.062,2.623 -2.743,2.984 -0.335,0.072 -0.682,0.108 -1.03,0.108 z m 0,-2.631 c 0.161,0 0.32,-0.016 0.477,-0.05 0.395,-0.085 0.994,-1.221 0.678,-1.481 -3.363,-2.779 -5.135,-4.471 -7.969,-7.131 l -0.105,-0.046 c -0.415,0 -0.861,2.077 -0.838,2.273 0.095,0.787 1.067,1.761 1.625,2.254 1.582,1.4 4.007,4.181 6.132,4.181"
         style="fill:#351f17;fill-opacity:1;fill-rule:nonzero;stroke:none;stroke-width:0.1"
         id="path208"
         inkscape:connector-curvature="0" /><path
         d="m 277.292,293.452 -0.199,0.042 c -3.914,0.935 -6.195,1.331 -9.647,1.929 l -0.76,0.131 c -0.618,0.109 -1.087,0.572 -1.197,1.182 -0.253,1.4 1.817,3.253 1.969,3.343 0.484,0.281 1.092,0.418 1.86,0.418 0.69,0 1.384,-0.113 1.846,-0.205 0.374,-0.076 0.802,-0.148 1.259,-0.223 2.612,-0.432 5.862,-0.97 6.947,-3.31 0.451,-0.97 -0.218,-2.104 -0.356,-2.322 -0.547,-0.857 -1.216,-0.985 -1.566,-0.985 h -0.156"
         style="fill:#fbd23d;fill-opacity:1;fill-rule:nonzero;stroke:none;stroke-width:0.1"
         id="path210"
         inkscape:connector-curvature="0" /><path
         d="m 269.318,301.812 c -1.007,0 -1.832,-0.194 -2.519,-0.594 -0.037,-0.022 -3.038,-2.32 -2.605,-4.716 0.21,-1.159 1.098,-2.04 2.264,-2.243 l 0.763,-0.132 c 3.428,-0.594 5.693,-0.987 9.567,-1.913 l 0.302,-0.073 0.358,-0.006 c 1.054,0 2.029,0.582 2.675,1.595 0.286,0.448 1.162,2.031 0.439,3.586 -1.375,2.968 -5.161,3.594 -7.924,4.051 -0.44,0.073 -0.852,0.141 -1.211,0.214 -0.522,0.105 -1.31,0.231 -2.109,0.231 z m 0,-2.632 c 0.573,0 1.177,-0.095 1.584,-0.178 2.225,-0.453 6.315,-0.727 7.274,-2.796 0.163,-0.352 -0.335,-1.439 -0.728,-1.439 l -0.048,0.006 c -4.242,1.015 -6.659,1.413 -10.489,2.078 -0.594,0.104 1.027,1.984 1.213,2.092 0.303,0.177 0.739,0.237 1.194,0.237"
         style="fill:#351f17;fill-opacity:1;fill-rule:nonzero;stroke:none;stroke-width:0.1"
         id="path212"
         inkscape:connector-curvature="0" /><path
         d="m 171.592,292.546 -0.335,0.126 c -3.697,1.597 -5.878,2.379 -9.178,3.564 l -0.718,0.258 c -0.591,0.214 -0.973,0.752 -0.976,1.372 -0.005,1.427 2.354,2.891 2.519,2.952 0.307,0.113 0.658,0.171 1.042,0.171 0.916,0 1.943,-0.327 2.642,-0.601 0.356,-0.139 0.766,-0.283 1.202,-0.436 2.498,-0.876 5.607,-1.966 6.273,-4.458 0.225,-0.852 -0.323,-1.687 -0.569,-2.007 -0.474,-0.615 -1.037,-0.941 -1.628,-0.941 h -0.274"
         style="fill:#fbd23d;fill-opacity:1;fill-rule:nonzero;stroke:none;stroke-width:0.1"
         id="path214"
         inkscape:connector-curvature="0" /><path
         d="m 163.946,302.305 c -0.541,0 -1.045,-0.086 -1.499,-0.254 -0.033,-0.011 -3.386,-1.75 -3.378,-4.19 0.005,-1.179 0.728,-2.201 1.842,-2.604 l 0.723,-0.259 c 3.277,-1.177 5.442,-1.953 9.102,-3.535 0.355,-0.155 0.737,-0.234 1.13,-0.234 1,0 1.949,0.518 2.671,1.456 0.453,0.589 1.159,1.781 0.798,3.143 -0.846,3.17 -4.466,4.438 -7.109,5.366 -0.421,0.148 -0.814,0.284 -1.156,0.418 -1.173,0.46 -2.223,0.693 -3.124,0.693 z m 0,-2.632 c 0.725,0 1.626,-0.3 2.162,-0.51 2.114,-0.83 6.095,-1.805 6.683,-4.009 0.096,-0.362 -0.534,-1.292 -0.925,-1.292 l -0.086,0.017 c -4.005,1.73 -6.316,2.539 -9.974,3.853 -0.568,0.205 1.354,1.777 1.555,1.852 0.17,0.063 0.37,0.089 0.585,0.089"
         style="fill:#351f17;fill-opacity:1;fill-rule:nonzero;stroke:none;stroke-width:0.1"
         id="path216"
         inkscape:connector-curvature="0" /><path
         d="m 253.025,280.722 c -0.508,0 -0.975,0.267 -1.25,0.712 -0.594,0.968 -0.167,3.239 0.03,3.63 0.428,0.842 1.436,1.577 2.998,2.189 0.356,0.138 0.754,0.311 1.178,0.496 1.619,0.702 3.632,1.575 5.417,1.575 0.852,0 1.597,-0.198 2.215,-0.589 0.837,-0.529 1.022,-1.772 0.942,-2.479 -0.118,-1.047 -0.796,-1.395 -1.081,-1.496 -3.806,-1.34 -5.942,-2.249 -9.175,-3.624 l -0.935,-0.397 -0.339,-0.017"
         style="fill:#fbd23d;fill-opacity:1;fill-rule:nonzero;stroke:none;stroke-width:0.1"
         id="path218"
         inkscape:connector-curvature="0" /><path
         d="m 261.398,290.639 c -2.058,0 -4.21,-0.933 -5.94,-1.683 -0.409,-0.178 -0.791,-0.344 -1.133,-0.478 -1.899,-0.743 -3.106,-1.664 -3.691,-2.815 -0.28,-0.555 -0.928,-3.375 0.021,-4.918 0.515,-0.838 1.402,-1.338 2.37,-1.338 0.376,0 0.744,0.075 1.095,0.223 l 0.694,0.296 c 3.21,1.365 5.331,2.266 9.097,3.593 1.082,0.382 1.812,1.349 1.951,2.588 0.109,0.958 -0.095,2.823 -1.545,3.74 -0.833,0.527 -1.815,0.792 -2.919,0.792 z m 0,-2.63 c 0.564,0 1.08,-0.113 1.512,-0.386 0.341,-0.216 0.511,-1.486 0.126,-1.621 -4.115,-1.451 -6.362,-2.427 -9.94,-3.948 l -0.071,-0.015 c -0.453,0 -0.137,2.249 -0.045,2.431 0.359,0.706 1.607,1.285 2.303,1.557 1.641,0.641 4.165,1.982 6.115,1.982"
         style="fill:#351f17;fill-opacity:1;fill-rule:nonzero;stroke:none;stroke-width:0.1"
         id="path220"
         inkscape:connector-curvature="0" /><path
         d="m 184.066,284.369 c -0.533,0 -1.009,0.283 -1.276,0.758 -0.587,1.045 0.103,3.369 0.288,3.672 0.494,0.806 1.557,1.459 3.162,1.943 0.364,0.11 0.774,0.251 1.211,0.4 1.509,0.518 3.388,1.161 5.05,1.161 1.059,0 1.946,-0.261 2.638,-0.779 0.793,-0.595 0.878,-1.85 0.743,-2.549 -0.201,-1.034 -0.903,-1.327 -1.196,-1.405 -3.88,-1.029 -6.068,-1.761 -9.379,-2.868 l -0.967,-0.322 -0.274,-0.011"
         style="fill:#fbd23d;fill-opacity:1;fill-rule:nonzero;stroke:none;stroke-width:0.1"
         id="path222"
         inkscape:connector-curvature="0" /><path
         d="m 192.501,293.62 c -1.881,0 -3.875,-0.684 -5.477,-1.233 -0.42,-0.144 -0.815,-0.28 -1.165,-0.385 -1.949,-0.589 -3.226,-1.41 -3.901,-2.512 -0.279,-0.458 -1.27,-3.307 -0.315,-5.008 0.495,-0.882 1.423,-1.43 2.423,-1.43 0.3,0 0.598,0.049 0.886,0.144 l 0.772,0.258 c 3.288,1.099 5.46,1.826 9.297,2.844 1.112,0.296 1.915,1.203 2.152,2.426 0.184,0.947 0.128,2.823 -1.243,3.852 -0.927,0.693 -2.08,1.044 -3.429,1.044 z m 0,-2.632 c 0.711,0 1.351,-0.145 1.849,-0.518 0.323,-0.242 0.393,-1.523 -0.003,-1.628 -4.217,-1.119 -6.534,-1.916 -10.221,-3.147 l -0.06,-0.011 c -0.474,0 0.028,2.254 0.135,2.43 0.415,0.676 1.704,1.152 2.419,1.368 1.582,0.478 3.985,1.506 5.881,1.506"
         style="fill:#351f17;fill-opacity:1;fill-rule:nonzero;stroke:none;stroke-width:0.1"
         id="path224"
         inkscape:connector-curvature="0" /><path
         d="m 278.738,279.693 c -0.533,0 -1.01,0.283 -1.277,0.759 -0.586,1.047 0.105,3.369 0.29,3.672 0.493,0.802 1.556,1.456 3.162,1.94 0.363,0.11 0.772,0.25 1.209,0.401 1.51,0.517 3.389,1.161 5.051,1.161 1.059,0 1.947,-0.262 2.638,-0.78 0.793,-0.593 0.878,-1.85 0.742,-2.549 -0.201,-1.036 -0.905,-1.328 -1.198,-1.405 -3.881,-1.029 -6.071,-1.761 -9.386,-2.869 l -0.957,-0.319 -0.274,-0.011"
         style="fill:#fbd23d;fill-opacity:1;fill-rule:nonzero;stroke:none;stroke-width:0.1"
         id="path226"
         inkscape:connector-curvature="0" /><path
         d="m 287.173,288.942 c -1.881,0 -3.875,-0.683 -5.477,-1.232 -0.421,-0.145 -0.814,-0.281 -1.164,-0.386 -1.95,-0.589 -3.227,-1.41 -3.903,-2.513 -0.242,-0.395 -1.266,-3.305 -0.316,-5.003 0.495,-0.882 1.424,-1.431 2.425,-1.431 0.303,0 0.603,0.049 0.894,0.146 l 0.755,0.252 c 3.291,1.1 5.465,1.826 9.307,2.846 1.107,0.292 1.912,1.198 2.151,2.424 0.184,0.947 0.13,2.825 -1.245,3.854 -0.924,0.693 -2.077,1.043 -3.427,1.043 z m 0,-2.632 c 0.712,0 1.351,-0.144 1.849,-0.517 0.323,-0.242 0.393,-1.524 -0.003,-1.628 -4.217,-1.119 -6.534,-1.915 -10.221,-3.146 l -0.06,-0.01 c -0.472,0 0.028,2.251 0.136,2.427 0.414,0.676 1.704,1.153 2.419,1.368 1.581,0.478 3.985,1.506 5.88,1.506"
         style="fill:#351f17;fill-opacity:1;fill-rule:nonzero;stroke:none;stroke-width:0.1"
         id="path228"
         inkscape:connector-curvature="0" /><path
         d="m 245.665,298.445 c -0.573,0.001 -1.08,0.326 -1.324,0.849 -0.549,1.178 0.61,3.479 0.789,3.694 0.612,0.724 1.761,1.209 3.419,1.448 0.38,0.054 0.808,0.132 1.265,0.214 1.224,0.221 2.612,0.472 3.935,0.472 1.67,0 2.885,-0.41 3.715,-1.253 0.696,-0.707 0.591,-1.962 0.351,-2.633 -0.354,-0.992 -1.093,-1.175 -1.395,-1.208 -4.014,-0.436 -6.302,-0.833 -9.766,-1.434 l -0.84,-0.146 -0.149,-0.003"
         style="fill:#fbd23d;fill-opacity:1;fill-rule:nonzero;stroke:none;stroke-width:0.1"
         id="path230"
         inkscape:connector-curvature="0" /><path
         d="m 253.749,306.437 c -1.441,0 -2.954,-0.272 -4.169,-0.492 -0.439,-0.079 -0.851,-0.154 -1.214,-0.206 -2.998,-0.432 -3.931,-1.535 -4.238,-1.897 -0.216,-0.259 -1.887,-3.161 -0.98,-5.105 0.463,-0.991 1.428,-1.607 2.517,-1.607 h 0.221 l 0.253,0.04 0.74,0.128 c 3.439,0.596 5.711,0.99 9.684,1.422 1.14,0.123 2.072,0.898 2.492,2.074 0.324,0.908 0.552,2.772 -0.652,3.997 -1.076,1.093 -2.642,1.646 -4.654,1.646 z m 0,-2.632 c 1.127,0 2.139,-0.211 2.777,-0.859 0.284,-0.288 0.16,-1.565 -0.247,-1.609 -4.338,-0.472 -6.748,-0.91 -10.578,-1.573 l -0.036,-0.003 c -0.521,0 0.34,2.222 0.474,2.381 0.511,0.606 1.858,0.885 2.598,0.992 1.351,0.192 3.313,0.671 5.012,0.671"
         style="fill:#351f17;fill-opacity:1;fill-rule:nonzero;stroke:none;stroke-width:0.1"
         id="path232"
         inkscape:connector-curvature="0" /><path
         d="m 218.831,288.179 -0.157,0.026 c -3.946,0.737 -6.238,1.016 -9.707,1.439 l -0.792,0.096 c -0.624,0.078 -1.116,0.519 -1.255,1.124 -0.321,1.395 1.658,3.341 1.806,3.437 0.532,0.346 1.248,0.515 2.186,0.515 0.575,0 1.131,-0.064 1.496,-0.119 0.381,-0.059 0.814,-0.107 1.275,-0.16 2.629,-0.301 5.9,-0.675 7.1,-2.958 0.53,-1.005 -0.195,-2.262 -0.279,-2.403 -0.524,-0.867 -1.196,-0.997 -1.551,-0.997 h -0.122"
         style="fill:#fbd23d;fill-opacity:1;fill-rule:nonzero;stroke:none;stroke-width:0.1"
         id="path234"
         inkscape:connector-curvature="0" /><path
         d="m 210.912,296.133 c -1.201,0 -2.151,-0.239 -2.905,-0.73 -0.028,-0.018 -2.918,-2.449 -2.37,-4.834 0.265,-1.15 1.197,-1.988 2.374,-2.135 l 0.797,-0.096 c 3.444,-0.419 5.719,-0.697 9.625,-1.426 l 0.239,-0.045 0.281,-0.003 c 1.075,0 2.051,0.595 2.678,1.634 0.584,0.969 0.974,2.448 0.315,3.696 -1.522,2.897 -5.332,3.332 -8.113,3.65 -0.444,0.051 -0.86,0.098 -1.224,0.153 -0.416,0.062 -1.041,0.136 -1.697,0.136 z m 0,-2.632 c 0.481,0 0.959,-0.055 1.301,-0.106 2.246,-0.342 6.344,-0.408 7.406,-2.428 0.181,-0.345 -0.271,-1.472 -0.666,-1.472 l -0.037,0.004 c -4.289,0.801 -6.722,1.076 -10.581,1.548 -0.599,0.074 0.927,2.034 1.106,2.15 0.356,0.231 0.915,0.304 1.471,0.304"
         style="fill:#351f17;fill-opacity:1;fill-rule:nonzero;stroke:none;stroke-width:0.1"
         id="path236"
         inkscape:connector-curvature="0" /><path
         d="m 201.644,299.22 -0.113,0.013 c -3.989,0.53 -6.298,0.689 -9.793,0.928 l -0.773,0.054 c -0.628,0.044 -1.142,0.459 -1.313,1.054 -0.394,1.373 1.477,3.423 1.619,3.527 0.592,0.432 1.446,0.643 2.608,0.643 0.393,0 0.764,-0.024 1.051,-0.053 0.383,-0.037 0.817,-0.063 1.279,-0.091 2.642,-0.162 5.93,-0.364 7.249,-2.578 0.494,-0.834 0.112,-1.958 -0.192,-2.49 -0.499,-0.876 -1.176,-1.007 -1.536,-1.007 h -0.086"
         style="fill:#fbd23d;fill-opacity:1;fill-rule:nonzero;stroke:none;stroke-width:0.1"
         id="path238"
         inkscape:connector-curvature="0" /><path
         d="m 193.879,306.755 c -1.451,0 -2.559,-0.293 -3.385,-0.898 -0.027,-0.019 -2.78,-2.603 -2.107,-4.95 0.325,-1.134 1.299,-1.921 2.481,-2.005 l 0.78,-0.054 c 3.47,-0.238 5.762,-0.395 9.71,-0.92 l 0.172,-0.022 0.2,-0.002 c 1.098,0 2.074,0.609 2.68,1.672 0.551,0.968 0.93,2.547 0.182,3.808 -1.679,2.818 -5.507,3.052 -8.302,3.224 -0.445,0.027 -0.862,0.052 -1.227,0.088 -0.41,0.039 -0.806,0.059 -1.184,0.059 z m 0,-2.632 c 0.346,0 0.673,-0.022 0.926,-0.046 2.261,-0.223 6.356,-0.075 7.523,-2.034 0.201,-0.34 -0.2,-1.507 -0.598,-1.507 l -0.026,0.002 c -4.325,0.574 -6.77,0.721 -10.649,0.989 -0.601,0.043 0.819,2.079 0.991,2.205 0.423,0.309 1.164,0.391 1.833,0.391"
         style="fill:#351f17;fill-opacity:1;fill-rule:nonzero;stroke:none;stroke-width:0.1"
         id="path240"
         inkscape:connector-curvature="0" /><path
         d="m 240.482,285.653 c -0.337,0 -0.655,0.103 -0.919,0.296 -3.238,2.364 -5.289,3.672 -8.126,5.48 l -0.684,0.436 c -0.527,0.337 -0.781,0.945 -0.648,1.551 0.308,1.391 2.933,2.302 3.107,2.325 0.111,0.015 0.224,0.021 0.34,0.021 0.869,0 1.932,-0.421 3.16,-1.254 0.317,-0.216 0.685,-0.447 1.079,-0.693 2.242,-1.406 5.032,-3.156 5.13,-5.732 0.026,-0.657 -0.368,-1.21 -0.704,-1.559 -0.313,-0.325 -0.954,-0.871 -1.735,-0.871"
         style="fill:#fbd23d;fill-opacity:1;fill-rule:nonzero;stroke:none;stroke-width:0.1"
         id="path242"
         inkscape:connector-curvature="0" /><path
         d="m 233.552,297.079 c -0.173,0 -0.345,-0.012 -0.511,-0.033 -0.039,-0.006 -3.694,-0.966 -4.22,-3.346 -0.255,-1.15 0.226,-2.307 1.224,-2.943 l 0.684,-0.437 c 2.923,-1.863 4.854,-3.094 8.059,-5.435 0.489,-0.357 1.076,-0.547 1.694,-0.547 1.268,0 2.226,0.798 2.684,1.274 0.735,0.764 1.105,1.637 1.07,2.523 -0.125,3.269 -3.374,5.307 -5.746,6.795 -0.378,0.237 -0.733,0.458 -1.036,0.664 -1.453,0.986 -2.765,1.485 -3.902,1.485 z m 0,-2.632 c 0.78,0 1.846,-0.638 2.422,-1.028 1.878,-1.278 5.546,-3.108 5.632,-5.386 0.014,-0.355 -0.721,-1.064 -1.124,-1.064 l -0.143,0.042 c -3.523,2.573 -5.599,3.872 -8.878,5.963 -0.507,0.325 1.715,1.434 1.926,1.462 l 0.165,0.011"
         style="fill:#351f17;fill-opacity:1;fill-rule:nonzero;stroke:none;stroke-width:0.1"
         id="path244"
         inkscape:connector-curvature="0" /><path
         d="m 217.884,302.928 c -0.587,0 -1.1,0.335 -1.338,0.874 -0.53,1.203 0.734,3.481 0.926,3.691 0.635,0.696 1.803,1.137 3.471,1.308 0.378,0.04 0.807,0.1 1.266,0.165 1.09,0.154 2.326,0.329 3.521,0.329 1.898,0 3.239,-0.461 4.099,-1.408 0.666,-0.736 0.512,-1.983 0.248,-2.642 -0.393,-0.977 -1.137,-1.132 -1.438,-1.153 -4.03,-0.279 -6.33,-0.586 -9.812,-1.051 L 218,302.93 l -0.116,-0.002"
         style="fill:#fbd23d;fill-opacity:1;fill-rule:nonzero;stroke:none;stroke-width:0.1"
         id="path246"
         inkscape:connector-curvature="0" /><path
         d="m 225.73,310.61 c -1.288,0 -2.572,-0.182 -3.705,-0.342 -0.441,-0.061 -0.854,-0.121 -1.219,-0.158 -1.996,-0.205 -3.447,-0.788 -4.307,-1.731 -0.223,-0.245 -2.035,-3.117 -1.157,-5.108 0.445,-1.008 1.443,-1.659 2.542,-1.659 h 0.171 l 0.199,0.024 0.747,0.1 c 3.457,0.462 5.741,0.768 9.725,1.042 1.149,0.083 2.107,0.821 2.571,1.976 0.359,0.892 0.66,2.743 -0.489,4.013 -1.129,1.242 -2.788,1.843 -5.078,1.843 z m 0,-2.632 c 1.281,0 2.445,-0.226 3.125,-0.975 0.271,-0.3 0.098,-1.57 -0.311,-1.599 -4.353,-0.301 -6.777,-0.645 -10.631,-1.158 l -0.029,-0.002 c -0.536,0 0.419,2.207 0.56,2.361 0.534,0.586 1.891,0.811 2.634,0.887 1.256,0.13 3.047,0.486 4.652,0.486"
         style="fill:#351f17;fill-opacity:1;fill-rule:nonzero;stroke:none;stroke-width:0.1"
         id="path248"
         inkscape:connector-curvature="0" /><path
         d="m 136.758,243.078 c -0.926,0 -1.808,0.495 -2.198,1.673 -3.655,11.02 -0.58,23.104 10.581,28.129 0.392,0.176 0.768,0.255 1.118,0.255 2.496,0 3.742,-3.999 0.958,-5.253 -8.331,-3.749 -10.366,-12.894 -7.66,-21.056 0.703,-2.122 -1.12,-3.748 -2.799,-3.748"
         style="fill:#fcd6a5;fill-opacity:1;fill-rule:nonzero;stroke:none;stroke-width:0.1"
         id="path250"
         inkscape:connector-curvature="0" /><path
         d="m 142.98,233.819 c -1.065,0 -2.091,0.633 -2.52,1.664 l -0.103,0.249 c -0.566,1.362 0.099,2.971 1.461,3.537 0.33,0.137 0.675,0.202 1.017,0.202 1.064,0 2.091,-0.63 2.519,-1.662 l 0.104,-0.251 c 0.567,-1.362 -0.098,-2.969 -1.46,-3.536 -0.331,-0.138 -0.676,-0.203 -1.018,-0.203"
         style="fill:#fcd6a5;fill-opacity:1;fill-rule:nonzero;stroke:none;stroke-width:0.1"
         id="path252"
         inkscape:connector-curvature="0" /><path
         d="m 181.879,250.084 c 0,-4.333 -3.513,-7.847 -7.846,-7.847 -4.334,0 -7.847,3.514 -7.847,7.847 0,4.333 3.513,7.846 7.847,7.846 4.333,0 7.846,-3.513 7.846,-7.846"
         style="fill:#351f17;fill-opacity:1;fill-rule:nonzero;stroke:none;stroke-width:0.1"
         id="path254"
         inkscape:connector-curvature="0" /><path
         d="m 173.076,253.429 c 0,-1.384 -1.122,-2.505 -2.506,-2.505 -1.384,0 -2.506,1.121 -2.506,2.505 0,1.384 1.122,2.507 2.506,2.507 1.384,0 2.506,-1.123 2.506,-2.507"
         style="fill:#ffffff;fill-opacity:1;fill-rule:nonzero;stroke:none;stroke-width:0.1"
         id="path256"
         inkscape:connector-curvature="0" /><path
         d="m 172.896,249.611 c 0,-0.521 -0.421,-0.943 -0.943,-0.943 -0.521,0 -0.943,0.422 -0.943,0.943 0,0.522 0.422,0.943 0.943,0.943 0.522,0 0.943,-0.421 0.943,-0.943"
         style="fill:#ffffff;fill-opacity:1;fill-rule:nonzero;stroke:none;stroke-width:0.1"
         id="path258"
         inkscape:connector-curvature="0" /><path
         d="m 174.624,252.119 c 0,-0.326 -0.265,-0.591 -0.591,-0.591 -0.327,0 -0.592,0.265 -0.592,0.591 0,0.327 0.265,0.593 0.592,0.593 0.326,0 0.591,-0.266 0.591,-0.593"
         style="fill:#ffffff;fill-opacity:1;fill-rule:nonzero;stroke:none;stroke-width:0.1"
         id="path260"
         inkscape:connector-curvature="0" /><path
         d="m 176.75,242.237 c 0,-0.966 -3.074,-1.75 -6.867,-1.75 -3.792,0 -6.866,0.784 -6.866,1.75 0,0.967 3.074,1.748 6.866,1.748 3.793,0 6.867,-0.781 6.867,-1.748"
         style="fill:#f2547d;fill-opacity:1;fill-rule:nonzero;stroke:none;stroke-width:0.1"
         id="path262"
         inkscape:connector-curvature="0" /><path
         d="m 223.356,250.084 c 0,-4.333 -3.513,-7.847 -7.846,-7.847 -4.334,0 -7.847,3.514 -7.847,7.847 0,4.333 3.513,7.846 7.847,7.846 4.333,0 7.846,-3.513 7.846,-7.846"
         style="fill:#351f17;fill-opacity:1;fill-rule:nonzero;stroke:none;stroke-width:0.1"
         id="path264"
         inkscape:connector-curvature="0" /><path
         d="m 214.553,253.429 c 0,-1.384 -1.122,-2.505 -2.507,-2.505 -1.384,0 -2.505,1.121 -2.505,2.505 0,1.384 1.121,2.507 2.505,2.507 1.385,0 2.507,-1.123 2.507,-2.507"
         style="fill:#ffffff;fill-opacity:1;fill-rule:nonzero;stroke:none;stroke-width:0.1"
         id="path266"
         inkscape:connector-curvature="0" /><path
         d="m 214.374,249.611 c 0,-0.521 -0.422,-0.943 -0.944,-0.943 -0.521,0 -0.943,0.422 -0.943,0.943 0,0.522 0.422,0.943 0.943,0.943 0.522,0 0.944,-0.421 0.944,-0.943"
         style="fill:#ffffff;fill-opacity:1;fill-rule:nonzero;stroke:none;stroke-width:0.1"
         id="path268"
         inkscape:connector-curvature="0" /><path
         d="m 216.101,252.119 c 0,-0.326 -0.265,-0.591 -0.591,-0.591 -0.327,0 -0.592,0.265 -0.592,0.591 0,0.327 0.265,0.593 0.592,0.593 0.326,0 0.591,-0.266 0.591,-0.593"
         style="fill:#ffffff;fill-opacity:1;fill-rule:nonzero;stroke:none;stroke-width:0.1"
         id="path270"
         inkscape:connector-curvature="0" /><path
         d="m 226.221,242.237 c 0,-0.966 -3.075,-1.75 -6.867,-1.75 -3.792,0 -6.867,0.784 -6.867,1.75 0,0.967 3.075,1.748 6.867,1.748 3.792,0 6.867,-0.781 6.867,-1.748"
         style="fill:#f2547d;fill-opacity:1;fill-rule:nonzero;stroke:none;stroke-width:0.1"
         id="path272"
         inkscape:connector-curvature="0" /><path
         d="m 194.619,240.51 c -3.398,0 -6.163,2.764 -6.163,6.162 0,0.094 0.019,0.188 0.056,0.275 0.203,0.479 1.205,1.592 6.107,1.592 3.89,0 5.771,-1.23 5.849,-1.282 0.196,-0.131 0.313,-0.35 0.313,-0.585 0,-3.398 -2.764,-6.162 -6.162,-6.162"
         style="fill:#ef3644;fill-opacity:1;fill-rule:nonzero;stroke:none;stroke-width:0.1"
         id="path274"
         inkscape:connector-curvature="0" /><path
         d="m 194.619,249.243 c -4.874,0 -6.364,-1.099 -6.755,-2.022 -0.074,-0.173 -0.113,-0.36 -0.113,-0.549 0,-3.787 3.082,-6.866 6.868,-6.866 3.786,0 6.866,3.079 6.866,6.866 0,0.469 -0.234,0.909 -0.625,1.171 -0.214,0.142 -2.209,1.4 -6.241,1.4 z m 0,-1.408 c 3.72,0 5.458,-1.163 5.458,-1.163 0,-3.015 -2.444,-5.457 -5.458,-5.457 -3.015,0 -5.459,2.442 -5.459,5.457 0,0 0.494,1.163 5.459,1.163"
         style="fill:#351f17;fill-opacity:1;fill-rule:nonzero;stroke:none;stroke-width:0.1"
         id="path276"
         inkscape:connector-curvature="0" /><path
         d="m 194.912,244.258 c -6.005,0 -6.028,0.076 -6.204,0.671 -0.167,0.569 -0.252,1.155 -0.252,1.743 0,0.094 0.019,0.188 0.056,0.275 0.203,0.479 1.205,1.592 6.107,1.592 3.89,0 5.771,-1.23 5.849,-1.282 0.196,-0.131 0.313,-0.35 0.313,-0.585 0,-0.601 -0.087,-1.197 -0.258,-1.769 -0.182,-0.598 -0.197,-0.645 -5.61,-0.645 h -0.001"
         style="fill:#ffffff;fill-opacity:1;fill-rule:nonzero;stroke:none;stroke-width:0.1"
         id="path278"
         inkscape:connector-curvature="0" /><path
         d="m 194.619,249.243 c -4.874,0 -6.364,-1.099 -6.755,-2.022 -0.074,-0.173 -0.113,-0.36 -0.113,-0.549 0,-0.656 0.095,-1.309 0.282,-1.942 0.313,-1.061 1.123,-1.083 3.079,-1.135 1.019,-0.027 2.368,-0.043 3.8,-0.043 5.488,0 5.937,0 6.284,1.144 0.193,0.644 0.289,1.307 0.289,1.976 0,0.469 -0.234,0.909 -0.625,1.171 -0.214,0.142 -2.209,1.4 -6.241,1.4 z m 0,-1.408 c 3.72,0 5.458,-1.163 5.458,-1.163 0,-0.543 -0.08,-1.071 -0.229,-1.567 -0.029,-0.096 -2.438,-0.143 -4.936,-0.143 -2.695,0 -5.495,0.055 -5.528,0.167 -0.145,0.49 -0.224,1.007 -0.224,1.543 0,0 0.494,1.163 5.459,1.163"
         style="fill:#351f17;fill-opacity:1;fill-rule:nonzero;stroke:none;stroke-width:0.1"
         id="path280"
         inkscape:connector-curvature="0" /><path
         d="m 213.357,262.873 0.007,0.003 c 0.113,0.041 1.411,0.487 3.155,0.485 2.055,-0.007 4.678,-0.585 6.933,-3.113 0.259,-0.29 0.704,-0.316 0.995,-0.058 0.29,0.259 0.316,0.704 0.058,0.995 -2.559,2.883 -5.671,3.592 -7.986,3.585 -2.112,-0.002 -3.605,-0.56 -3.656,-0.577 -0.364,-0.137 -0.549,-0.543 -0.413,-0.907 0.137,-0.364 0.542,-0.549 0.907,-0.413"
         style="fill:#351f17;fill-opacity:1;fill-rule:nonzero;stroke:none;stroke-width:0.1"
         id="path282"
         inkscape:connector-curvature="0" /><path
         d="m 176.375,264.193 c -0.051,0.017 -1.544,0.575 -3.657,0.577 -2.315,0.007 -5.427,-0.702 -7.986,-3.585 -0.258,-0.291 -0.233,-0.736 0.058,-0.995 0.291,-0.258 0.736,-0.232 0.994,0.058 2.256,2.528 4.879,3.106 6.934,3.113 0.931,0 1.734,-0.125 2.299,-0.249 0.282,-0.063 0.504,-0.124 0.653,-0.17 l 0.166,-0.053 0.038,-0.013 0.007,-0.003 c 0.364,-0.136 0.77,0.049 0.906,0.413 0.137,0.364 -0.048,0.77 -0.412,0.906"
         style="fill:#351f17;fill-opacity:1;fill-rule:nonzero;stroke:none;stroke-width:0.1"
         id="path284"
         inkscape:connector-curvature="0" /><path
         d="m 190.138,153.577 c -0.177,-0.106 -4.899,-2.892 -9.738,-9.147 -4.837,-6.245 -9.761,-16.013 -10.196,-29.785 l 2.322,-0.075 -0.63,2.237 -6.254,-1.764 c -1.235,-0.348 -1.954,-1.632 -1.606,-2.867 0.348,-1.235 1.632,-1.954 2.867,-1.606 l 6.254,1.764 c 0.973,0.274 1.659,1.151 1.692,2.161 0.416,12.728 4.886,21.461 9.228,27.093 2.173,2.81 4.317,4.831 5.899,6.137 0.791,0.653 1.441,1.127 1.882,1.43 0.221,0.152 0.389,0.262 0.497,0.33 l 0.115,0.071 0.021,0.013 -0.281,0.471 0.277,-0.473 0.004,0.002 -0.281,0.471 0.277,-0.473 c 1.107,0.648 1.479,2.072 0.831,3.179 -0.649,1.108 -2.072,1.48 -3.18,0.831"
         style="fill:#351f17;fill-opacity:1;fill-rule:nonzero;stroke:none;stroke-width:0.1"
         id="path286"
         inkscape:connector-curvature="0" /><path
         d="m 230.91,150.956 c 0.01,-0.207 0.233,-5.684 3.458,-12.906 3.215,-7.216 9.495,-16.172 21.424,-23.066 l 1.164,2.011 -2.269,0.501 -1.402,-6.344 c -0.277,-1.253 0.514,-2.494 1.767,-2.771 1.253,-0.277 2.494,0.514 2.771,1.768 l 1.402,6.344 c 0.218,0.987 -0.23,2.007 -1.105,2.513 -11.018,6.384 -16.6,14.452 -19.51,20.94 -1.449,3.243 -2.217,6.089 -2.619,8.1 -0.202,1.006 -0.312,1.803 -0.371,2.335 -0.03,0.266 -0.046,0.467 -0.056,0.594 l -0.008,0.135 -0.002,0.024 -0.536,-0.024 0.536,0.02 v 0.004 l -0.536,-0.024 0.536,0.02 c -0.048,1.282 -1.126,2.283 -2.408,2.235 -1.283,-0.048 -2.284,-1.127 -2.236,-2.409"
         style="fill:#351f17;fill-opacity:1;fill-rule:nonzero;stroke:none;stroke-width:0.1"
         id="path288"
         inkscape:connector-curvature="0" /><path
         d="m 302.947,197.144 c -0.029,0.13 -1.397,8.143 -5.594,16.357 -2.105,4.106 -4.925,8.283 -8.762,11.51 -1.918,1.611 -4.095,2.978 -6.545,3.939 -2.448,0.962 -5.166,1.51 -8.115,1.509 -0.521,0 -1.05,-0.017 -1.588,-0.052 -1.281,-0.083 -2.251,-1.189 -2.168,-2.47 0.084,-1.28 1.19,-2.251 2.47,-2.167 0.436,0.028 0.865,0.042 1.286,0.042 2.378,-0.001 4.491,-0.434 6.418,-1.188 3.364,-1.319 6.191,-3.662 8.553,-6.539 3.542,-4.306 5.958,-9.781 7.434,-14.161 0.741,-2.189 1.253,-4.103 1.578,-5.459 0.162,-0.677 0.277,-1.216 0.351,-1.579 0.037,-0.182 0.063,-0.32 0.08,-0.41 l 0.018,-0.099 0.004,-0.023 c 0.219,-1.265 1.421,-2.113 2.685,-1.895 1.265,0.218 2.113,1.42 1.895,2.685"
         style="fill:#351f17;fill-opacity:1;fill-rule:nonzero;stroke:none;stroke-width:0.1"
         id="path290"
         inkscape:connector-curvature="0" /><path
         d="m 298.514,196.111 -1.158,-4.261 c -0.336,-1.238 0.395,-2.515 1.633,-2.851 1.239,-0.337 2.516,0.394 2.852,1.633 l 1.158,4.26 c 0.336,1.239 -0.395,2.516 -1.633,2.852 -1.239,0.337 -2.516,-0.395 -2.852,-1.633"
         style="fill:#351f17;fill-opacity:1;fill-rule:nonzero;stroke:none;stroke-width:0.1"
         id="path292"
         inkscape:connector-curvature="0" /><path
         d="m 298.809,194.233 2.411,-3.701 c 0.7,-1.075 2.14,-1.379 3.215,-0.679 1.076,0.701 1.38,2.14 0.679,3.216 l -2.411,3.701 c -0.7,1.075 -2.139,1.379 -3.215,0.679 -1.075,-0.7 -1.379,-2.14 -0.679,-3.216"
         style="fill:#351f17;fill-opacity:1;fill-rule:nonzero;stroke:none;stroke-width:0.1"
         id="path294"
         inkscape:connector-curvature="0" /><path
         d="m 300.406,193.205 4.366,-0.665 c 1.268,-0.194 2.453,0.678 2.647,1.947 0.193,1.268 -0.679,2.454 -1.947,2.647 l -4.366,0.665 c -1.268,0.193 -2.454,-0.679 -2.647,-1.947 -0.193,-1.269 0.679,-2.454 1.947,-2.647"
         style="fill:#351f17;fill-opacity:1;fill-rule:nonzero;stroke:none;stroke-width:0.1"
         id="path296"
         inkscape:connector-curvature="0" /><path
         d="m 390.36,113.137 -0.119,-0.002 c -0.865,-0.027 -1.656,-0.349 -2.275,-0.87 -11.899,-9.862 -24.567,-14.6548 -38.728,-14.6548 -14.507,0 -29.442,5.1068 -42.138,10.1028 -0.44,0.172 -0.903,0.258 -1.362,0.258 -0.738,0 -1.468,-0.219 -2.095,-0.646 -1.017,-0.692 -1.626,-1.844 -1.626,-3.074 V 58.6609 c 0,-1.5281 0.935,-2.9019 2.358,-3.4621 23.781,-9.3597 36.023,-10.6218 44.863,-10.6218 15.95,0 30.161,5.3449 43.438,16.339 0.857,0.6809 1.406,1.732 1.406,2.911 0,2.0359 -1.634,3.6902 -3.663,3.7199 l -0.058,0.0011 -0.102,-0.0019 -0.176,-0.009 c -0.758,-0.0492 -1.515,-0.0742 -2.25,-0.0742 -9.506,0 -15.06,4.075 -17.63,6.6672 2.386,2.6929 6.437,7.3551 10.535,12.4769 11.569,14.46 13.271,19.725 13.339,22.62 l 0.005,0.19 c 0,2.041 -1.641,3.698 -3.677,3.719 z m -0.001,-49.31 h 0.005 m -0.005,45.59 c 0,-7.727 -25.051,-35.176 -25.051,-35.176 0,0 6.439,-10.498 22.525,-10.498 0.817,0 1.658,0.0269 2.526,0.084 -13.706,-11.368 -27.415,-15.5301 -41.121,-15.5301 -14.502,0 -29.001,4.657 -43.501,10.364 v 45.5901 c 14.498,-5.7049 29.001,-10.3619 43.501,-10.3619 13.708,0 27.413,4.1597 41.121,15.5279 m 0,0 h 0.005"
         style="fill:#351f17;fill-opacity:1;fill-rule:nonzero;stroke:none;stroke-width:0.1"
         id="path300"
         inkscape:connector-curvature="0" /><path
         d="m 34.8402,113.137 c -0.5371,0 -1.0765,-0.116 -1.5812,-0.353 -1.3051,-0.613 -2.1383,-1.926 -2.1383,-3.367 0,-2.856 1.5164,-8.03 13.3406,-22.81 4.0989,-5.123 8.1508,-9.7871 10.5364,-12.4789 -2.5614,-2.582 -8.1149,-6.6652 -17.6301,-6.6652 -0.7461,0 -1.5145,0.0262 -2.2832,0.0762 l -0.2449,0.0089 c -1.5141,0 -2.8883,-0.9222 -3.4547,-2.3449 -0.5965,-1.498 -0.1602,-3.2101 1.0808,-4.239 C 45.7598,49.9359 59.9871,44.577 75.9613,44.577 c 15.7512,0 31.5187,5.3691 44.8647,10.6218 1.423,0.5602 2.358,1.934 2.358,3.4621 v 45.5901 c 0,1.23 -0.609,2.382 -1.626,3.074 -0.626,0.427 -1.357,0.645 -2.095,0.646 -0.459,0 -0.921,-0.086 -1.361,-0.258 C 95.4742,98.8102 84.1016,97.6102 75.9613,97.6102 c -14.1683,0 -26.8422,4.7988 -38.7457,14.6698 -0.6808,0.564 -1.5242,0.857 -2.3754,0.857 z m 4e-4,-3.72 C 48.5484,98.0488 62.2535,93.8891 75.9613,93.8891 c 14.5,0 29.0027,4.657 43.5027,10.3619 V 58.6609 c -14.501,-5.707 -29.0007,-10.364 -43.5027,-10.364 -13.7058,0 -27.4144,4.1621 -41.1207,15.5301 0.8688,-0.0571 1.709,-0.084 2.527,-0.084 16.0859,0 22.5242,10.498 22.5242,10.498 0,0 -25.0512,27.449 -25.0512,35.176"
         style="fill:#351f17;fill-opacity:1;fill-rule:nonzero;stroke:none;stroke-width:0.1"
         id="path308"
         inkscape:connector-curvature="0" /><g
         id="g1713"><path
           inkscape:connector-curvature="0"
           id="path298"
           style="fill:#800000;fill-opacity:1;fill-rule:nonzero;stroke:none;stroke-width:0.1"
           d="m 349.238,46.4359 c -15.441,0 -30.999,5.3051 -44.182,10.4942 -0.711,0.2801 -1.179,0.966 -1.179,1.7308 v 45.5901 c 0,0.615 0.305,1.19 0.813,1.537 0.313,0.214 0.679,0.323 1.047,0.323 0.23,0 0.461,-0.043 0.681,-0.13 12.859,-5.059 28.002,-10.231 42.82,-10.231 14.62,0 27.682,4.938 39.934,15.098 0.34,0.283 0.762,0.429 1.188,0.429 0.268,0 0.538,-0.059 0.79,-0.177 0.653,-0.306 1.069,-0.963 1.069,-1.683 0,-7.524 -18.626,-28.7729 -24.514,-35.3022 2.075,-2.5308 8.236,-8.5117 20.128,-8.5117 0.786,0 1.595,0.027 2.405,0.0797 l 0.122,0.0043 c 0.757,0 1.444,-0.4609 1.727,-1.1723 0.299,-0.7488 0.08,-1.6046 -0.54,-2.1199 C 378.6,51.657 364.761,46.4359 349.238,46.4359" /><path
           inkscape:connector-curvature="0"
           id="path302"
           style="fill:#671317;fill-opacity:1;fill-rule:nonzero;stroke:none;stroke-width:0.1"
           d="m 305.737,56.8012 c -0.355,0 -0.708,0.1008 -1.015,0.3008 -0.527,0.3441 -0.845,0.93 -0.845,1.5589 v 38.234 c 0,0.8172 0.532,1.5371 1.312,1.7781 0.181,0.0551 0.366,0.0829 0.548,0.0829 0.603,0 1.184,-0.295 1.537,-0.8129 l 20.043,-29.3789 c 0.311,-0.4563 0.404,-1.027 0.252,-1.5582 -0.152,-0.5321 -0.532,-0.968 -1.037,-1.1911 l -20.043,-8.8546 c -0.24,-0.1071 -0.496,-0.159 -0.752,-0.159" /><path
           inkscape:connector-curvature="0"
           id="path304"
           style="fill:#351f17;fill-opacity:1;fill-rule:nonzero;stroke:none;stroke-width:0.1"
           d="m 305.737,100.616 c -0.365,0 -0.735,-0.055 -1.097,-0.166 -1.559,-0.482 -2.623,-1.923 -2.623,-3.5551 v -38.234 c 0,-1.2578 0.636,-2.4308 1.69,-3.1168 0.613,-0.4 1.32,-0.6043 2.031,-0.6043 0.51,0 1.022,0.1063 1.503,0.3192 l 20.043,8.8551 c 1.01,0.4461 1.77,1.3179 2.073,2.3808 0.304,1.0621 0.119,2.2051 -0.503,3.118 l -20.043,29.3793 c -0.707,1.0348 -1.867,1.6238 -3.074,1.6238 z m 0,-3.7211 20.043,-29.3789 -20.043,-8.8551 v 38.234" /><path
           inkscape:connector-curvature="0"
           id="path306"
           style="fill:#800000;fill-opacity:1;fill-rule:nonzero;stroke:none;stroke-width:0.1"
           d="m 75.9613,46.4359 c -15.5234,0.0012 -29.3621,5.2211 -42.3082,15.959 -0.6203,0.5153 -0.8386,1.3711 -0.5402,2.1199 0.2832,0.7114 0.9699,1.1723 1.7273,1.1723 l 0.1223,-0.0043 c 0.8094,-0.0527 1.6176,-0.0797 2.4023,-0.0797 h 0.0028 c 11.8117,8e-4 18.0312,6.0008 20.1207,8.5188 -5.8961,6.5383 -24.5074,27.7741 -24.5074,35.2951 0,0.72 0.4168,1.377 1.0687,1.683 0.2527,0.118 0.5227,0.177 0.7906,0.177 0.4258,0 0.8477,-0.146 1.1879,-0.429 C 48.2789,100.689 61.3414,95.75 75.9578,95.75 h 0.0031 c 14.8188,8e-4 29.9631,5.173 42.8221,10.231 0.22,0.087 0.451,0.13 0.681,0.13 0.368,0 0.734,-0.109 1.047,-0.323 0.509,-0.347 0.813,-0.922 0.813,-1.537 V 58.6609 c 0,-0.7648 -0.468,-1.4507 -1.179,-1.7308 C 106.961,51.741 91.402,46.4359 75.9641,46.4359 h -0.0028" /><path
           inkscape:connector-curvature="0"
           id="path310"
           style="fill:#671317;fill-opacity:1;fill-rule:nonzero;stroke:none;stroke-width:0.1"
           d="m 119.464,56.8012 c -0.256,0 -0.511,0.0519 -0.752,0.159 l -20.0456,8.8546 c -0.5055,0.2231 -0.8855,0.659 -1.0371,1.1911 -0.152,0.5312 -0.059,1.1019 0.252,1.5589 l 20.0457,29.3793 c 0.353,0.5168 0.934,0.8118 1.537,0.8118 0.182,0 0.367,-0.0278 0.549,-0.0829 0.779,-0.241 1.311,-0.9609 1.311,-1.7781 v -38.234 c 0,-0.6289 -0.318,-1.2148 -0.845,-1.5589 -0.307,-0.2 -0.66,-0.3008 -1.015,-0.3008" /><path
           inkscape:connector-curvature="0"
           id="path312"
           style="fill:#351f17;fill-opacity:1;fill-rule:nonzero;stroke:none;stroke-width:0.1"
           d="m 119.464,100.616 c -1.207,0 -2.367,-0.589 -3.073,-1.6238 L 96.3453,69.6129 c -0.623,-0.9129 -0.8078,-2.0559 -0.5047,-3.118 0.3035,-1.0629 1.0633,-1.9347 2.0739,-2.382 L 117.96,55.2578 c 0.481,-0.2117 0.994,-0.318 1.503,-0.318 0.711,0 1.418,0.2043 2.032,0.6043 1.053,0.686 1.689,1.859 1.689,3.1168 v 38.234 c 0,1.6321 -1.063,3.0731 -2.623,3.5551 -0.362,0.111 -0.732,0.166 -1.097,0.166 z m 0,-3.7211 v -38.234 l -20.046,8.8551 20.046,29.3789" /><path
           inkscape:connector-curvature="0"
           id="path314"
           style="fill:#800000;fill-opacity:1;fill-rule:nonzero;stroke:none;stroke-width:0.1"
           d="m 325.761,65.6441 c -0.171,0 -0.344,0.0239 -0.516,0.0739 -36.303,10.482 -74.165,15.7961 -112.537,15.7961 -38.372,0 -76.234,-5.3141 -112.535,-15.7961 -0.172,-0.05 -0.3453,-0.0739 -0.5164,-0.0739 -0.7394,0 -1.432,0.445 -1.723,1.1598 L 80.7734,109.077 c -0.198,0.488 -0.1796,1.037 0.0504,1.512 0.2305,0.474 0.6508,0.828 1.1571,0.974 42.1721,12.178 86.1551,18.353 130.7271,18.353 44.573,0 88.556,-6.175 130.729,-18.353 0.506,-0.146 0.927,-0.501 1.157,-0.974 0.23,-0.475 0.249,-1.025 0.051,-1.513 L 327.484,66.8051 c -0.291,-0.716 -0.983,-1.161 -1.723,-1.161" /><path
           inkscape:connector-curvature="0"
           id="path316"
           style="fill:#351f17;fill-opacity:1;fill-rule:nonzero;stroke:none;stroke-width:0.1"
           d="m 212.708,131.776 c -44.747,0 -88.904,-6.199 -131.2432,-18.426 -1.0128,-0.293 -1.8539,-1.001 -2.3144,-1.949 -0.4606,-0.948 -0.4965,-2.048 -0.1,-3.024 l 2.6344,-6.491 c 4.8418,-11.9282 9.6824,-23.854 14.5257,-35.7809 0.5821,-1.4332 1.9665,-2.3211 3.4458,-2.3211 0.3421,0 0.6897,0.0469 1.0327,0.1461 36.133,10.434 73.822,15.725 112.019,15.725 38.197,0 75.886,-5.291 112.021,-15.725 0.343,-0.0992 0.69,-0.1461 1.033,-0.1461 1.479,0 2.864,0.889 3.446,2.3211 l 5.016,12.3578 c 4.046,9.9691 8.093,19.9402 12.144,29.9141 0.396,0.976 0.36,2.075 -0.1,3.024 -0.461,0.948 -1.302,1.656 -2.315,1.949 -42.34,12.227 -86.497,18.426 -131.245,18.426 z m 0,-3.721 c 44.005,0 88.011,-6.092 130.213,-18.279 C 337.197,95.682 331.479,81.593 325.761,67.5051 289.12,78.0852 250.914,83.375 212.708,83.375 c -38.206,0 -76.411,-5.2898 -113.051,-15.8699 -5.7215,14.089 -11.439,28.1769 -17.1597,42.2709 42.2007,12.187 86.2057,18.279 130.2107,18.279" /></g><text
         transform="matrix(0.91545513,0.13250619,0.07512956,-1.0814783,0,0)"
         id="text1717"
         y="-60.434574"
         x="111.91151"
         style="font-style:normal;font-weight:normal;font-size:32.671978px;line-height:1.25;font-family:sans-serif;letter-spacing:0px;word-spacing:0px;fill:#ffffff;fill-opacity:1;stroke:none;stroke-width:0.81679946"
         xml:space="preserve"><tspan
           style="fill:#ffffff;stroke-width:0.81679946"
           y="-60.434574"
           x="111.91151"
           id="tspan1715"
           sodipodi:role="line">BURGER</tspan></text>
<text
         transform="matrix(0.90352128,-0.1813436,-0.21808034,-1.0630104,0,0)"
         id="text1721"
         y="-132.17529"
         x="220.53572"
         style="font-style:normal;font-weight:normal;font-size:30.99894333px;line-height:1.25;font-family:sans-serif;letter-spacing:0px;word-spacing:0px;fill:#ffffff;fill-opacity:1;stroke:none;stroke-width:0.77497357"
         xml:space="preserve"><tspan
           style="fill:#ffffff;stroke-width:0.77497357"
           y="-132.17529"
           x="220.53572"
           id="tspan1719"
           sodipodi:role="line">QUEEN</tspan></text>
</g></g></svg>